<?xml version="1.0" encoding="UTF-8"?>
<svg version="1.1" viewBox="0 0 1600 900" width="1280" height="1280" xmlns="http://www.w3.org/2000/svg">
<path transform="translate(0)" d="m0 0h1600v900h-1600z" fill="#5A4122"/>
<path transform="translate(900,105)" d="m0 0h3l1 5-2 4-5 1v7h9l3-1 5 3v2l6 1v2h2v-2h3l1 2 15-3-1 4h-2v6l1 1 8-1 7-1 3 5 11-1v2l-5 4v4l5-1 15 2v3l-1 4h-2l-1 4 5-2h7v5l3 1h6l-2 4-9 11 10-5 9 3v6l6-1 4 1 1 5-2 3 13-3h6l2 4h9l-1 4-2 7h2v3l14-2-1 5 3-1 6 2-2 4-4 5-1 3 5-1 2-4 10-11 3-3 5-2 4 1 8 13 7 11v2l5-1 6 4 1 3-1 2 3-1h7l6 5-1 9 6-1v4h2l2-5 5-2 1 5 1-2h3l-1 7 7-5h3v5h11l1 4 4-2 1 1v5l5-1-1 5 6-4 14-12 10-8 7-8 2-4-2-6 1-8-15-9-1-5 4-3h22l11 2 6 7 2 3 4 1 3 4 5 20-1 4 7 6 5 8v2l6 2 7 7 10 15 8 16 5 1 17 1 24 6 32 7 10 2h17l5-2v-2l3-3h2l1-5 8-9 11-8 18-11 23-12 22-8 21-5 7-1h12l7 4 2 3-1 5-12 17-4 5-14 26-4 9 5-4 16-5 12-4 2-1h14l8-1 8 5 11 7 10 10v390l-28 18-16 9-19 8-26 10-26 8-16 4-39 5-13 1h-45l-34-2-17-2-21-2-40-7v-2h-23l-8-2-1 4-3 2h-7l-8-4-5-3-4-1 1 3 1 75 3 7-1 6-5 5h-5l-6-7v-3h2v-13l-2-19-1-1-3-24v-22l-4-1-1-17v-72l-5-10-5-5 5 9 1 1v92l-3-1-1-91-8-13-5-5-5-4-8-3v-2h-94l-53-1-5-1 3-3 4-2 2-4 5-9 3-5v-18l-4-12v-7l-7-6-4-8-1-12h-2l-5-5h-12l-3-3 1-8 6-5 5-5 1-3v-11l-3-10 3-5 8-7 7-8 6-4h2l-1-10-3-4-2-6-8-5-6-10v-2l-6-2-9-6 1-5 3-9 2-4v-10l-4-9-4-5-2-10-1-6-3-7-3-17-4-7-7-6-2-3-7-3-12-2-8-4-9-6-4-3-13-3-8-9-2-9-3-4v-15l-5-2-3-4-6-16-1-4-4-2-2-2v-9l-2-5h-2l-3-7-4-4-3-7 1-5 1-6h-3l-5-16-4-4-3-13-2-4 1-11 3-5 3-10 6-7 5-3 3-5 6-3h4l3 4 4 1v-7l3-4 7-4 7-2 5-1 5-2 2-5z" fill="#342410"/>
<path transform="translate(3,18)" d="m0 0 5 1 2 5 1 8 3 2 1 5 13 2 4 5 9 2 6 6h2l4-9 6-4 3-4h2l-1 11-1 6 1 2 1 11h2v-3h2l3 8v8l-1 3h-2l1 13 2 11v2l6-1 2 3-5 12-3 13-1 7h-2l-2 5 4-1 2-4 12-9 5-1 4-8 6-4 2-4h2l2-7 2-13 2-5h2l-1 14 2 10-2 9 1 17 4-4 5-8 2-9 5-10 5-3h2v8l3-4h2v9l4-1 6-8 3-1 1-6 4-1 1 10v38l3-3 3-6 7-8h3l1 11 5-17 3-7 2-7h-2v-4h2l2-8h2l2-6v-11l-1-7 2-3h2l1-6 3-1 1 4v18l-1 3-1 12-2 1 1 3 3 29 7-8 5-13 5-8h2l2-10h2v53l3 7 2 7 5-10 4-4 1-2h2l1-5 6-8 2 1v8l1 5 4-5 3-5 8-7 6 1v-3h3l1 4-4 9h-7l3 12 1 15 3 5 3 12-2 18h2l3-9 10-13 2-9h3l3 10 3 6 1 6 7-11 4-6 3 1 2 20 1 1 1 10 1 7h2l1-6 3-9-1-10-4-10v-20l-3-6v-11l-4-2 1-2h2l-2-8-5-7-5-3-4-9-4-8v-20l-1-5 12-6 3-7h4l3 16v17h2l1-5 6-10 3-9 4 2 2 3 1-4h3l-1 8-6 3-5 3v10l-1 5-5 1v13l1 9h2l2-4h3l-1 5-4 2h-1l-3 14h2l1-5 11-11 6-11h4l2-6 3-3v7l8-16 3-7 2-10 5 2 3 3 1 3v9l-3 7 3-1 2 1 1-11 2 1v2h2l-4-11 1-13 2-2-1-5-3-3v-3h2v-2h3l-1-10 2-7h2l-1-9-2-3v-7l-3 3-1 2h-4l2-6-1-3-2-8h5l3 7 6 6 2 12 3 7v4l-3-1-1-3 1 13 3 13h2l4-4 1 4 1 10h2l3 7 3 10 4 3 2 10 2 12 3 2h5v-6l6-1 6 2 7 5 3 15-1 8-2 6h-5l-4 7-3 12-13 11-9 14-4 11-3 35v17l-1 10-2 2v5l-6 4h-3l-1 4-1 1 2 1-1 4-3 6v5l3 5 1 6h2l3 5 4 6v2l-4-1-5-5 5 6 7 1h3l-1 3-11 5h-2l-1 7 2 7 2 6-1 8 1 1-1 14v2h2l-1 4-5 9-2 6h-2l-2 4-1 7v12l2 4-2 3h-5l-1 4-5 4-5 7-2 2 4 2v5h-2l2 4-1 2 4 2-1 5-5 3-6 2-6 4 2 4-5 5-2 3-5 3-5 5-5 1-1 8-4 5v19l2 3 2 18v12l-1 6 4 13 4 10 4 5 3 2 2 6 9 11 5 6-4 4-8 4-2 4h-2l-2 5-4 14-4 4h-3v4h5v3h-3v2l-5 5-7 13v2l7-2 26-22 6-1 3 2v11l-1 9-3 5-1 6-1 5-6 15-4 8-5 12-3 4-1 3h7l4-5 6-1 3 3-1 4-8 7-6 4v10l2 6-1 7-1 9 6 11 4 8 3 10 3 9 3 5-1 6-5 9-4 10-4 16-1 22 1 5h-344v-880h3z" fill="#CC9E62"/>
<path transform="translate(570,264)" d="m0 0h13l2 1-1 4-9 15-7 10-12 23-7 11-9 17-5 10-2 10v25l10 26 5 7 17 9 6 1h10l1-1h16l5-3h2l-1 7-2 27-1 1-4 31-7 24-9 21-1 6-12 5-4 1 5 1 1 21-1 8 1 10-3 9 10 2 1 1 1 39h7l2 1v-35h2l7 31v3h6l-3-13-4-26v-5l11-5 1-5v-5l2-4-2-7-3-2v-7l-3-5v-3l4-3h2l1-3v-7l-4-2-8-1 1-11 6-15 4-7 3-7 4-10 4-8 2-7 4-10 5-14 4-8 3-9 3-12 7-15 4-10 5-6 2-9 8-8 7-8 13-13 15-8 16-12h14l18-4 8-4 14-13 8-12 8-5 5 1 13 12 9 15 5 9 3 8 4 9 5 8 2 7h2l2 10h2l1 6h2l17 33 15 23 9 16 13 22 3 10h2l2 3v4h2l1 4h2v2l3 1 5 8 2 7h2l8 14 5 11 3 6v7l-1 3v31l2 16h2l6 17 5 13 1 5-1 7 87 1 58 1v2h4l2 6-1 3 4 4 1 4h2l-1 4-1-1-1 2h-2l3 3 5 1-1 2-3 3-1 4 5-1v7l-2 6-1 8-4 3v2l4 2 1 4-2 5h3l1 6 1 5-1 8-5 5-5-2h-2v2l-3 1v14l-4 1v3l4 1 3 3-9 12h-3l-2 4-3 3-3 1-1 7-6 5-3 1-35 1-15 1 15 1 3 3 1 6-2 1 1 20 3 34v7l-1 2-3 1-3 5-3 1v2h-2v14l-2 3h-485l-6-3 1-3 14-9 9-8 10-13 8-15 7-21 3-18h-3v7l-6 17-9 16-7 9-1 3-3 3h-2l-2 5-3 3h-2l-2 4-5 5-4 2-4 4h-3v2h-5l-3-2v-2l-5-1-10-9-3-2 1-13 6-39 2-11h-60l-10-3-11-9-8-9-7-12-2-5v-100l4-11 7-9 7-6 14-4h96l1-4 9-6 4-2-4-19-1-6-3-6-5-25-5-17-5-29-7-26-4-19-1-3-1-19 2-1 1-5-5-5v-2h-2l-2-3v-5l-4-2-5-11-2-10-9-14-7-10-8-10-5-7v-5l3-1 24-2 6-3 4-5 6-10 4-3 1-8 3-4v-9l-2-4 8-3 2-2v-8l-7-11-1-3v-8l3-5 4-1-1-5v-8l18-3 16-1z" fill="#CC9E62"/>
<path transform="translate(1596,362)" d="m0 0h4v353l-28 18-16 9-19 8-26 10-26 8-16 4-39 5-13 1h-45l-34-2-17-2-21-2-40-7v-2h-23l-8-2-1 4-3 2h-7l-8-4-5-3-4-1 1 3 1 75 3 7-1 6-5 5h-5l-6-7v-3h2v-13l-2-19-1-1-3-24v-22l-4-1-1-17v-72l-5-10-5-5 5 9 1 1v92l-3-1-1-91-8-13-5-5-5-4-8-3v-3h-38l-3-2 12-4 5-5-1-10v-2h2l-4-4-3-7 1-7 3-2h3l-1-3 2-1 2 1 1-8 6-7 6-3 3-3 5-3 5-5 2-8v-8l-3-6-3-2-1-11-1-2v-8l10-15 7-10 5-3h2l2-9 5-8 5-3 5-5 7-6 10-1v-4l5 1 3 2 6-2h7l3 3 3-3 7-4 3-3 6-5 7-6h3l1-9 5 1 3-8 9-1 5 2v2l5 2 4 5v2h8l3 2v2l4 1 5-2 8-6 2-6 8-6 3-1h14l2 1h14l7-1 6 2h18l4-1 16-1 4-2 11-2 10-3h6l17-6 6-3 4-3h3l1 2 8-5h3l1-3h2l2-6 4-3 5-3 2-6 5-2 6-1 14 1 12-1 19-2 21-4 9-4 7-3z" fill="#100903"/>
<path transform="translate(0)" d="m0 0h638l2 14 1 1 2 15 2 6v10l-4 8 4-1 2-4 2-2 7 1 6 3 7 9v3l13 2 2 1-1 4h-3v3h-2l-1 6-3 3-5 3-14 11-5 5-4 8h2l2 5 2-4h2l-1 7-5 12-5 8-3 7-5 6-5 2v2l-5 1v2l-7 6-6 12v10l2 7v8l-8 24-9 20-8 14-9-3-19-5-26-6-5-3-3-5-9-24-8-16-5-6-3-2v-2l-5-1-7-4-9-3h-3l-3 5h-2l-3 10h-2l-3 19-3 9h-2v2l-5 3-5 8-3 8-6 9-3 8-3 6-3 2-1 10-7 8h-2v3l-4 1-3 10-1 4 1 3v14l2 16-3 15-2 6-2 17-1 3-2 1v5l2 2-1 11-2 8-3 7 2 4v5l-1 3-1 5 1 5-1 3h2l1 10-1 3h-2l1 4h-2v6l-3 1-3 10 1 2 6 3-2 6-3 2-3 6-5 5-1 9-1 3 1 2v6l-4 6h-2v17l-2 7-4 4-2 7-1 1v5l4 8 3 13 1 5v3l3 2 1 9-2 3v10l2 6-4 13-1 11 5 8 1 9 1 8-1 9-3 9-3 16h-4l-2-2-5 9 1 18-1 11-3 4v18l2 13-1 29v7l1 4-2 17 1 7-3 6-1 5-6 2v15l-2 7 1 1-1 12-3 3 2 10-1 1h-10l-2-5 1-22 5-20 7-14 2-3-1-5-4-8-2-10-5-12-6-9-1-9 2-6-1-7-1-3v-10l5-4 6-4 4-4v-5l-8 1-4 5-7-1 1-5 4-6 6-15 3-5 4-11 1-5 1-6 3-5 1-9v-11l-6-1-9 7-10 9-11 8-5 1v-4l6-12 4-5h2v-2h3v-3h-5v-4l5-3 3-9 4-9 1-2h2l1-4 4-3 8-4-4-6-9-10-2-3-1-5-5-4-5-10-4-11-1-7 1-4v-12l-2-18-2-3v-19l4-5 2-8 8-4 4-5 3-1 4-6 2-1-1-3-2-2 8-4 8-3 3-2-1-5-2-1-1-6h2v-5l-4-1v-3l5-5 7-9 1-2h5l1-4-2-2v-17l4-6h2v-5l3-4 5-10h-2l-1-7 1-9-1-5 1-5-3-9-1-7 4-4 11-5 1-2-8 1-7-6-1-4 5 5 5 3-6-9-1-4h-2l-4-10-1-1v-5l5-10-3-1 3-5 8-4v-5l2-2 1-15v-12l3-35 5-13 9-13 9-8 3-2 1-7h2l1-7 4-6h5l2-8-1-9-2-11-7-5-11-1v6l-5 1-4-3-2-12-2-10-5-5-3-12-1-3h-2l-2-10v-3l-4 4-3-1-3-13-1-15 2 2 1 3 2 1-5-15-1-8-5-5-3-6v-2h-5l2 3 1 7v4l-2 3h4l2-5h2l1 7 2 3 1 7-1 2h-2l-1 12v5h-3v2h-2l3 5 2 2-2 10-1 9 3 8v3h-2l-1-2-2 10h-5l2-7v-9l-3-5-5-3-1 10-3 7-9 17-1-4v-3l-4 8-4 1-5 10-12 12-1 4h-2l1-8 2-8 1 2 4-4 1-3-4 2-1 2h-2l-2-9v-13l1-1h5v-15l7-5 4-1 2-8h-3v5l-5-5h-2l-3 10-5 8-2 5h-2l-1-17-2-8v-8h-4l-1 5-5 5-9 3 2 5v20l4 8 3 9 5 2 6 8 1 2v6l-2 2 3 2 1 11 3 6v20l5 14-1 9-4 12h-2l-2-7-1-10-1-1-2-20h-2l-7 11-3 6-2-1-2-8-4-9-1-5h-1l-2 9-10 13-4 9h-2v-12l1-6-4-14-2-3-1-15-2-8v-4l7-1 3-10v-2h-3v3l-3 1h-4-2l-2 4-4 4-5 8-2-1-1-5v-8l-5 5-3 7h-2l-2 5-3 1-1 4-4 7-2-3-4-12v-39l1-14h-2l-1 8-1 2h-2l-2 5-5 10-3 7-7 8h-1l-3-30v-4h2v-12l1-3v-22l-2 1-2 6-3 3 1 7v11l-3 6h-2l-2 8h-2v4h2l-2 9-6 17-2 6h-1v-12l-5 3-6 8-3 6h-2l-1-9v-39l-4 1-1 6-5 4-4 6-5 1 1-10h-2l-2 4-2 1 1-9-6 3-5 10-3 11-7 10h-2l-1 2-1-19 2-9-2-10 1-11 1-3h-2l-2 9-2 12-2 4-2 1-3 5-5 2-1 4-5 5-6 3-10 8-4 4-2-1 3-5h2l1-13 5-15 2-5-4-1h-3l-3-13v-13h2v-11l-2-5v-3h-2v3l-3 1-1-12-1-4 3-15-5 5-5 3-5 10-5-2-1-4-11-2-4-5-13-2-2-3v-3l-3-2-2-11-1-2-4-1v2h-3z" fill="#AE8651"/>
<path transform="translate(1025)" d="m0 0h575v325l-7-6-10-8-11-6-5-1-4 1h-14l-11 4-16 5-7 4-2 1 2-6 10-19 8-14 8-10 7-11-1-5-7-4h-12l-17 3-23 7-16 7-21 11-17 11-11 9-5 6-1 4h-2l-1 3h-2v2l-5 3h-17l-19-4-35-8-12-3-17-1-6-2-10-19-9-13-7-6-4-2-6-10-7-6 1-5-4-15 1-2 3 7 2 8v7l3 1 1-6-1-13 4-7 3-1h6l3-8v-12l1-3v-7l-3-10-1-3h-2l-4-16-3-9-3-5-3-11-6-7-2-6-6-3v-2h-2l-5-5-7-9-5-5-5-6-2-1v-3h-2v-2l-4-2-7-4-10-10-7-6-11-5h-5l-2 9-1 3 1 5-5 5-7-6-1-3h-2l-5-9-3-3-4-2-4-4-5-1-10-8-5 1-8-2-5 2-6-2-4 1v2l-7 4h-14v-2l-9-3-5-5-5-6-8-5-6-5-5-5-8-9-1-3-6-3z" fill="#5A4122"/>
<path transform="translate(478,177)" d="m0 0 6 1 10 4 4 3 4 1 5 5 6 8 8 18 8 22 3 3 23 6 22 5 12 5 7 5v3l-13-1h-13l-4 1-16 1-12 2h-6l1 13-5 3-1 3v8l6 11 2 3v8l-4 4-6 1 2 4v9l-3 4-1 8-5 4-7 12-6 5-13 2-17 1 2 6 8 11 7 9 10 15 3 5 3 12 5 10 2 1 2 8h2l6 7-2 6h-2l2 19 8 34 4 14 6 34 4 12 5 25 4 9 1 9 2 8v5l-11 8-2 1-1 3-96 1-14 4-9 8-6 10-2 7v100l7 14 8 10 8 7 7 4 7 2 60 1-1 11-6 39-1 13 11 9 6 3v2l8 2v-2l5-2 2-3 4-2 10-10 4-6h2l1-3h2l1-4 7-10 9-16 5-15 1-7h3v7l-4 18-6 16-9 16-12 14-10 8-10 6v2l5 2v1h-186l-1-9-1-3 4-2-1-3 1-9-1-3 1-5h2l-1-7v-8l4-2 3-2 1-6 2-3-1-10 2-15-1-4v-16l1-20-2-12v-18l3-5 1-11-1-17 5-9h3v2h4v-7l4-16 2-6v-9l-1-4-1-9-5-8 2-16 3-8-2-6v-10l2-3-1-9-3-2v-6l-2-4-2-11-4-8v-5l2-2 2-7 3-1 2-11v-12l1-3 4-4 1-2v-6l-1-3 1-2 1-9 5-5 4-7 3-2 1-5-6-3-1-4 4-9h3v-6h2l-1-4h2v-13h-2l-1-9 1-4 1-8-2-5 4-8 2-12v-5l-2-2v-5l3-1 2-22 3-7 2-12-2-20v-10l-1-4 5-13 4-1v-3l5-4 3-4 1-10 4-3 4-10 3-6 5-7 3-9 6-8 4-1v-2h2l3-13 2-13 1-2h2l1-7 2-3h2l2-5z" fill="#5A4122"/>
<path transform="translate(605,645)" d="m0 0h89l30 1 13 2v2l10 3 15 6 15 2 7-1 12-6 7-7 16-2h64l14 1 7 2h33l7 3 3 2 2 6 4 8v2h2l8 15 10 13 22 22 8 7 12 12 1 6 1-1h27v-2h5v2h2l-1 4 5-3h17l2 3v5l-16-1 1 3 12 5 4 5v6l-4 5-4 2h-10l-4-1h-7l-1 1-14 1-5 1 4 3 1 16-75 1-256 2h-80v-33h-7v3h2l1 2 2-1-1 5-1-2h-2l-2 34-2 7-4 36-5 18-3 9h-2l-2 8-2 4h-2l-2 5-3 4h-45l-6-3 1-3 14-9 9-8 10-13 8-15 7-21 3-18h-3v7l-6 17-9 16-7 9-1 3-3 3h-2l-2 5-3 3h-2l-2 4-5 5-4 2-4 4h-3v2h-5l-3-2v-2l-5-1-10-9-3-2 1-13 6-39 2-10 1-1h15l1 3 3 24 1 6v-11l-1-8v-14l4-1-6-1v-6h5l-1-3-4-1-1-4-1-17v-27h-6v-8h6l-2-4-5-5 1-6 4-2 6-13 1-7h3l1-3 4-4 1-2 5-1 3-10 1-4h2l1-7 2-3h2v-2h6l2 6 5-1-1 7h2l2 10 2 5 1 9 1 38 9-1 2-44 2-6 4-4h2l1-2 2 1 1-2 3 1 5 26 2 14 2 10v6h7l-4-29-8-31-4-26z" fill="#B6A792"/>
<path transform="translate(748)" d="m0 0h277l5 3 3 2 3 5 5 6 5 4v2l4 2 6 5 6 4 6 7v2l9 3 2 1v2l14-1 4-3h3v-2l5-2 7 2 5-2 7 2 4-1 3 2v2l5 2 5 3 5 2 2 3 5 3 6 8v3h2l8 8 4-4-1-6 2-5 2-6 6-1 13 7 6 7 8 6v2l4 1 7 5v2h2v3l3 1 7 8v2l3 1 8 10 3 2v2h2v2l6 2 4 9 4 3 3 9 3 8 2 3 2 7 3 11v5h2l4 9 1 4v7l-1 6v10l-3 7-1 1h-7l-2 1-3 6 1 17-3 3-3-2v-7l-4-14-5-7h-4l-6-9-5-2-7-1h-22l-3 2 1 5 14 8 1 3-1 6 2 8-8 8-4 5-9 7-14 12-4 3-2-1 2-5-5 1-1-5-5 2v-5l-6 1h-6l1-6-10 5 1-7h-3l-1 3h-1v-6l-5 3-2 4h-2v-4l-7 2 1-10-5-4h-7l-4 1 1-5-6-4h-5l-9-15-7-11-6 1-8 5-4 3 2-5-2-1h-8v-5l-5-1v-2l-5-2-2-4-9-1v-4l-14 1 2-5h-6l1-5-8 1-2 1-1-4h-10l-1-4-6 1 2-4 3-4v-3l-3-3-15-2 1-8-11-1 2-5-8 1v-2h2l1-5-7 1-2-5h-13l1-2h2v-2l-9 1 2-4 1-1h-10l-3-4v-6l-6 2-2-1v-3l-10-1-4 1-2-4-3 2-1-3v-4l-3-1-4 1-7-2 2-5h-4l-3 4-2-1-2-4h-3v-2h-2v-5l-6 2v-6h-4v2l-4-1-3-4-3-1-1 4v-4l-7-2-5 1v-4l-10-3-1-2-10-2v-2h-8l-8-3-4 2-1-4-6 1-7-6-1-7v-12l-7 13-3 3-4 2-6-1-2-1 1 8-3-1-4-5v7h-3-2l1 7-4 4h-10l-1-2 5-13 5-27v-18z" fill="#7E6038"/>
<path transform="translate(946,623)" d="m0 0 2 3 3 6v8l-1 3 87 1 58 1v2h4l2 6-1 3 4 4 1 4h2l-1 4-1-1-1 2h-2l3 3 5 1-1 2-3 3-1 4 5-1v7l-2 6-1 8-4 3v2l4 2 1 4-2 5h3l1 6 1 5-1 8-5 5-5-2h-2v2l-3 1v14l-4 1v3l4 1 3 3-9 12h-3l-2 4-3 3-3 1-1 7-6 5-3 1-35 1-15 1 15 1 3 3 1 6-2 1 1 20 3 34v7l-1 2-3 1-3 5-3 1v2h-2v14l-2 3h-440l5-9h2l3-10 1-2h2l1-8 3-7 3-12 4-36 2-7 2-31 1-3 3 1v-3l-2 1v-3h-2v-3h7l1 6-1 27 42-1h38l258-2h73l-1-3-1-13-3-2-7-1v-1l26-2 1-1h7l4 1h10l6-4 1-2v-6l-5-5-10-4-2-4 1-1h7l9 2-2-7h-17l-5 2 1-4h-2v-2h-5v2l-27 1-1 6h-1v-10l-7-8-11-11-8-7-19-19-9-13-8-16-4-12-2-11v-13z" fill="#7A7670"/>
<path transform="translate(1598,715)" d="m0 0h2v185h-369l1-12-1-5 1-9 1-5v-9l-2-7-2-4v-3h-2l-10-25-1-8h-2l-4-14-3-5-2-9h-2l1 56-2-4-1-78 7 1 5 4 5 2h7l3-2 1-3h6l2 1 23 1v2h7l39 7 44 4 22 1h45l31-3 21-3 22-6 26-8 13-5 9-4 23-10 17-10 17-12z" fill="#594021"/>
<path transform="translate(0)" d="m0 0h382l-2 8h-3l-1-6v4l2 4h8l5 2 1 3 5 1 4 5 1 2 1 16 4-1 1 4-2 7h2v6l2-2 2 6 2 14-1 2-4-2 2-1-3-11-3 1-3 3v6l-4 8h-2l-2-8h-3l-2 5h-4l-3-13-1-15 2 2 1 3 2 1-5-15-1-8-5-5-3-6v-2h-5l2 3 1 7v4l-2 3h4l2-5h2l1 7 2 3 1 7-1 2h-2l-1 12v5h-3v2h-2l3 5 2 2-2 10-1 9 3 8v3h-2l-1-2-2 10h-5l2-7v-9l-3-5-5-3-1 10-3 7-9 17-1-4v-3l-4 8-4 1-5 10-12 12-1 4h-2l1-8 2-8 1 2 4-4 1-3-4 2-1 2h-2l-2-9v-13l1-1h5v-15l7-5 4-1 2-8h-3v5l-5-5h-2l-3 10-5 8-2 5h-2l-1-17-2-8v-8h-4l-1 5-5 5-9 3 2 5v20l4 8 3 9 5 2 6 8 1 2v6l-2 2 3 2 1 11 3 6v20l5 14-1 9-4 12h-2l-2-7-1-10-1-1-2-20h-2l-7 11-3 6-2-1-2-8-4-9-1-5h-1l-2 9-10 13-4 9h-2v-12l1-6-4-14-2-3-1-15-2-8v-4l7-1 3-10v-2h-3v3l-3 1h-4-2l-2 4-4 4-5 8-2-1-1-5v-8l-5 5-3 7h-2l-2 5-3 1-1 4-4 7-2-3-4-12v-39l1-14h-2l-1 8-1 2h-2l-2 5-5 10-3 7-7 8h-1l-3-30v-4h2v-12l1-3v-22l-2 1-2 6-3 3 1 7v11l-3 6h-2l-2 8h-2v4h2l-2 9-6 17-2 6h-1v-12l-5 3-6 8-3 6h-2l-1-9v-39l-4 1-1 6-5 4-4 6-5 1 1-10h-2l-2 4-2 1 1-9-6 3-5 10-3 11-7 10h-2l-1 2-1-19 2-9-2-10 1-11 1-3h-2l-2 9-2 12-2 4-2 1-3 5-5 2-1 4-5 5-6 3-10 8-4 4-2-1 3-5h2l1-13 5-15 2-5-4-1h-3l-3-13v-13h2v-11l-2-5v-3h-2v3l-3 1-1-12-1-4 3-15-5 5-5 3-5 10-5-2-1-4-11-2-4-5-13-2-2-3v-3l-3-2-2-11-1-2-4-1v2h-3z" fill="#1D1309"/>
<path transform="translate(1596,362)" d="m0 0h4v55h-3v7l-5-2-2-2-9 1-4 1v2h-2l-2 5-4 2-1 5-7 5-8 1-1 2-3 3-16 7-4 3-5 1-3 3-8 4-10 6-4 6-4 3-3 6-10 8-18 6-8 1-2-1h-23l-3-1-3-3-15-4-5-1-24 1-8 3-4 2-10 2-10-1-8-2-7-6-16 1h-8l-2 4v11l10 18v10l-3 3-5-1-1-2-6-1-3 1 3 3-2 4h-3v-4l-4-1-5-3-14 3-2-1-1 2-1-3-8-2-1 2-4-3v-3l-7 2-1 3-6 1-2 5h-2l-2 4-2 6h-2l-2 4-8 4-9 4-6 7-7 7-3 11-3-1 1 3v12l-3 9 1 14 2 11v10l-2 2-1 5h2l-1 26 3 17v25h-2l3 9 1 10-1 9-3 5-3 7-6 2-2-1v6l-4-1-1-17v-72l-5-10-5-5 5 9 1 1v92l-3-1-1-91-8-13-5-5-5-4-8-3v-3h-38l-3-2 12-4 5-5-1-10v-2h2l-4-4-3-7 1-7 3-2h3l-1-3 2-1 2 1 1-8 6-7 6-3 3-3 5-3 5-5 2-8v-8l-3-6-3-2-1-11-1-2v-8l10-15 7-10 5-3h2l2-9 5-8 5-3 5-5 7-6 10-1v-4l5 1 3 2 6-2h7l3 3 3-3 7-4 3-3 6-5 7-6h3l1-9 5 1 3-8 9-1 5 2v2l5 2 4 5v2h8l3 2v2l4 1 5-2 8-6 2-6 8-6 3-1h14l2 1h14l7-1 6 2h18l4-1 16-1 4-2 11-2 10-3h6l17-6 6-3 4-3h3l1 2 8-5h3l1-3h2l2-6 4-3 5-3 2-6 5-2 6-1 14 1 12-1 19-2 21-4 9-4 7-3z" fill="#1B1108"/>
<path transform="translate(958,643)" d="m0 0h94l94 1 1 2 8 3 9 7 7 12 2 3 1 91 2 1-1-92-5-7v-3l3 1 6 9 2 5v72l1 17 3 1 1 22 3 24 1 1 2 19v10l-1 3h-2l3 5 3 3v2l6-2 4-5-2-12v-51h2l5 13 3 8 1 7h2l4 13 5 14 2 3v3h2l4 9 1 5v9l-2 10v8l1 2-1 10-1 1h-206l1-3v-12l1-2h2v-2l4-3 2-4h3v-9l-4-46v-8l3-1-3-7-1-1-28-1v-1l28-2 35-1 6-3 2-4 2-6 5-3 3-4 4-2 7-11-6-3-1-4h5l-1-15h4v-2l4-1 4 2 3-5 2-11-2-1-1-3 1-3h-3l1-8-5-5 1-2 3-1v-6h2l-1-3 2-5v-6l-2 1-2-1 1-6 4-3h-6l-2-4h2l2-4-1-1-3-5v-2l-3-1 1-5-1-4h-4v-2h-58l-79-1z" fill="#726E6A"/>
<path transform="translate(620,652)" d="m0 0h12l10 2 7 10 4 4 5 9v4l3 1 1-4h21l6 4 2 3v9l7-1 1 1 5-11 3-5 6-1 4 4 11 26 1 4h-9l-2-5h-15l-2 5h-9l-3 11-2 8-1 7-2 7 2-1h6l5 8 9 22-1 4-20 2-1 7-6 10-4 4-18 1h-36v-33h-7v3h2l1 2 2-1-1 5-1-2h-2l-2 34-2 7-4 36-5 18-3 9h-2l-2 8-2 4h-2l-2 5-3 4h-45l-6-3 1-3 14-9 9-8 10-13 8-15 7-21 3-18h-3v7l-6 17-9 16-7 9-1 3-3 3h-2l-2 5-3 3h-2l-2 4-5 5-4 2-4 4h-3v2h-5l-3-2v-2l-5-1-10-9-3-2 1-13 6-39 2-10 1-1h15l1 3 3 24 1 6v-11l-1-8v-14l4-1-6-1v-6h5l-1-3-4-1-1-4-1-17v-27h-6v-8h6l-2-4-5-5 1-6 4-2 6-13 1-7h3l1-3 4-4 1-2 5-1 3-10 1-4h2l1-7 2-3h2v-2h6l2 6 5-1-1 7h2l2 10 2 5 1 9 1 38 9-1 2-44 2-6 4-4h2l1-2 2 1 1-2 3 1 5 26 2 14 2 10v6h7l-3-22-1-13-6-22-3-21v-11l5 1 3 2 3-2z" fill="#C7B8A2"/>
<path transform="translate(721,809)" d="m0 0h166l3 6 3 13 10 11 5 2 4 7-1 4-5 1v2l-9 2-4 3h-2v4h2v2l7 2 1 3 2 9 3 9 2 5v6h-313l1-5 3-1 1-5 7-13 2-5 3-12 4-13 2-29 1-7z" fill="#CC9E62"/>
<path transform="translate(3,18)" d="m0 0 5 1 2 5 1 8 3 2 1 5 13 2 4 5 9 2 6 6h2l4-9 6-4 3-4h2l-1 11-1 6 1 2 1 11h2v-3h2l3 8v8l-1 3h-2l1 13 2 11v2l6-1 2 3-5 12-3 13-1 7h-2l-2 5 4-1 2-4 12-9 5-1 4-8 6-4 2-4h2l2-7 2-13 2-5h2l-1 14 2 10-2 9 1 17 4-4 5-8 2-9 5-10 5-3h2v8l3-4h2v9l4-1 6-8 3-1 1-6 4-1 1 10v38l3-3 3-6 7-8h3l1 11 5-17 3-7 2-7h-2v-4h2l2-8h2l2-6v-11l-1-7 2-3h2l1-6 3-1 1 4v18l-1 3-1 12-2 1 1 3 3 29 7-8 5-13 5-8h2l2-10h2v53l3 7 2 7 1 4-2 2h-5l-2 4-3 1-2 7-5 5-3-2-3-10-2-4-5 1-3 6v7l-4 11h-4l-3-6 1-10h-7l-6 4-6-1-4-5-3-4-6-1-11 10-5 10-4 1-4-2-2-5-1-7-3-2-4 2h-6v-2l-7 2-5 5-8 1-4 3-2 5-2 13-4 4-1 4-2 1-1 5-2-4-7-2h-2l-2 11-3 12v8l1 5-1 2h-6l-2-1v-2l-10 1h-11l-8-1-3-4v-4h-2l-1-7h-6l-4 1-6-1v-218h3z" fill="#AE8651"/>
<path transform="translate(0)" d="m0 0h247l5 8 8 7 2 3-1 7-5 7-5 2h-6l2-11h2v-2h2l-1-2-4-1v3h-2v2l-6 2-2 4-5 4h-2l-2 4-3 8-1 4 2 7v5l-5 6-9 4-3 3h-2l-1 5-3 7-1 9 7-2 5 1 2 1-1 7-4 2v2h-2l-1 3h-6l-1 6-1 21 3 1-4 3-3-30v-4h2v-12l1-3v-22l-2 1-2 6-3 3 1 7v11l-3 6h-2l-2 8h-2v4h2l-2 9-6 17-2 6h-1v-12l-5 3-6 8-3 6h-2l-1-9v-39l-4 1-1 6-5 4-4 6-5 1 1-10h-2l-2 4-2 1 1-9-6 3-5 10-3 11-7 10h-2l-1 2-1-19 2-9-2-10 1-11 1-3h-2l-2 9-2 12-2 4-2 1-3 5-5 2-1 4-5 5-6 3-10 8-4 4-2-1 3-5h2l1-13 5-15 2-5-4-1h-3l-3-13v-13h2v-11l-2-5v-3h-2v3l-3 1-1-12-1-4 3-15-5 5-5 3-5 10-5-2-1-4-11-2-4-5-13-2-2-3v-3l-3-2-2-11-1-2-4-1v2h-3z" fill="#1D1208"/>
<path transform="translate(1596,362)" d="m0 0h4v31h-3l-4-2-1 2-7 2-3 3-9 3-15 2-1 2-5-1-7 1h-5l-3 1v2l-6 3h-6v2l-12 7h-2v2l-6 3-6 7-6 5h-2l-2 5-3 3h-3l-2 4h-3l-1 2-7 6-8 4-10 4h-4l-2-5-7-1-2-5-11-1-9-2-12 2h-6l-7 1h-22l-4-1-8 1-2-1v-2l-8-1-1 3-6 1-9-2-7 1-10 5-3 1-2 6-5 4-5-5-9-1-10-1-1 4-5 2-1 5-7 4-3 5-5 5-4 2-1 2-9 1-5 2-13-1-8-1h-8l-2 3h-7l-4 2-7 11h-2l-3 9-2 2v5l3 1v3l-4-1-1 4 1 7-3 2-2 7h2l4 8-2 7-5-1-3-3-5 2-6 8-5 16-1 9v15l-3 10v6l-4 5-1 7-15 5 3 2h-29l-3-2 12-4 5-5-1-10v-2h2l-4-4-3-7 1-7 3-2h3l-1-3 2-1 2 1 1-8 6-7 6-3 3-3 5-3 5-5 2-8v-8l-3-6-3-2-1-11-1-2v-8l10-15 7-10 5-3h2l2-9 5-8 5-3 5-5 7-6 10-1v-4l5 1 3 2 6-2h7l3 3 3-3 7-4 3-3 6-5 7-6h3l1-9 5 1 3-8 9-1 5 2v2l5 2 4 5v2h8l3 2v2l4 1 5-2 8-6 2-6 8-6 3-1h14l2 1h14l7-1 6 2h18l4-1 16-1 4-2 11-2 10-3h6l17-6 6-3 4-3h3l1 2 8-5h3l1-3h2l2-6 4-3 5-3 2-6 5-2 6-1 14 1 12-1 19-2 21-4 9-4 7-3z" fill="#21160B"/>
<path transform="translate(447,643)" d="m0 0h105v1h-9l-1 9-8 22-3 6v10l-7 17-6 7-3 6-2 3h-2l-2 7 2 12h-6v13h7v-13h1l1 13 1 2-4 1-2 3h-2v8l8 13 3 6v2h4l-1 11-2 7 10-1-1-6v-13l2-3 2 13 3 1 1-2v5h-5v6h29v1l-27 1 2 22v14l-2-3-3-19-1-14-16 1-60-1-10-3-11-9-8-9-7-12-2-5v-100l4-11 7-9 7-6z" fill="#837B71"/>
<path transform="translate(570,264)" d="m0 0h13l2 1-1 4-9 15-7 10-12 23-7 11-9 17-5 10-2 10v25l10 26 5 7 17 9 6 1h10l1-1h16l5-3h2l-1 7-2 27-1 1-4 31-7 24-9 21-1 6-12 5-4 1 5 1 1 21-1 8 1 10-3 9 10 2 1 1v40l-35-1 1-4 9-6 4-2-4-19-1-6-3-6-5-25-5-17-5-29-7-26-4-19-1-3-1-19 2-1 1-5-5-5v-2h-2l-2-3v-5l-4-2-5-11-2-10-9-14-7-10-8-10-5-7v-5l3-1 24-2 6-3 4-5 6-10 4-3 1-8 3-4v-9l-2-4 8-3 2-2v-8l-7-11-1-3v-8l3-5 4-1-1-5v-8l18-3 16-1z" fill="#CC9E62"/>
<path transform="translate(572,76)" d="m0 0h6l4 6 1 4 5 2 4 4 11 4 6 4 9 1 7 5 2 7 1 9h4l1 5 1 1v8l-2 5v6l1 4-3 1v2l-5 1v2l-7 6-6 12v10l2 7v8l-8 24-9 20-8 14-9-3-19-5-26-6-5-3-3-5-9-24-8-16-5-6-3-2v-2l-5-1-9-5v-2l4-2h3l2-6 4-5h2l1-6 6-11 9-11 2-4 7-4 6-2 3-9 3-6 1-13 10-8 7-3 4-8z" fill="#CC9E62"/>
<path transform="translate(215,809)" d="m0 0h17v2l4-1 6 3 6 5v2l5 2 8 5 3 3v2h2l3 5 10 10 3 2v2h2l4 8 5 5 3 10 2 5 1 21h-252l1-4 6-4 2-4 8-6 3-5 2-5 5-3 8-14 6-2 12-1 6-3 10-4 8-4h9l7 2v2h7l7-6 7-2h11l16-4 8-3h2v-2l5-4h2v-2l8-3 3-1-2-7z" fill="#AE8651"/>
<path transform="translate(620,165)" d="m0 0h1v17l1 3 1 11 1 7-1 6-1 16-3 18v2h-2l-2 7-3 4-2 6h-2l-1 5-2 3h-2v2h-2l-2 4-7 8-2 5v7l17 1 6 3 6 9 3 2 1 8 1 6 4 9v3l-3 12-3 6-4 7-1 7 1 10 1 2v16l-1 10 4 2 1 4-4 4h-4l-1 7-3 1v2l-5 1-1 3v-2l-7 4h-16l-1 1h-10l-8-2-15-8-6-8-10-26v-25l3-12 8-16 5-9 5-7 8-16 9-16 6-8 8-13 1-3 11 1v-3l-5-2-2-4 11-21 8-20 5-16v-8l-2-7v-10l2 2 1-3h3l-1-3 3-3z" fill="#916D3F"/>
<path transform="translate(917,809)" d="m0 0h46l72 1 1 21 3 34v7l-1 2-3 1-3 5-3 1v2h-2v14l-2 3h-117l-2-8-3-11-3-7v-5l-7-3v-2h-2v-4l8-5h7v-2l5-2-1-4-2-6-6-2-10-11-4-16-1-2z" fill="#AF8752"/>
<path transform="translate(460,170)" d="m0 0 10 2 10 4-5 7h-2l-3 10h-2l-3 19-3 9h-2v2l-5 3-5 8-3 8-6 9-3 8-3 6-3 2-1 10-7 8h-2v3l-4 1-3 10-1 4 1 3v14l2 16-3 15-2 6-2 17-1 3-2 1v5l2 2-1 11-2 8-3 7 2 4v5l-1 3-1 5 1 5-1 3h2l1 10-1 3h-2l1 4h-2v6l-3 1-3 10 1 2 6 3-2 6-3 2-3 6-5 5-1 9-1 3 1 2v6l-4 6h-2v17l-2 7-4 4-2 7-1 1v5l4 8 3 13 1 5v3l3 2 1 9-2 3v10l2 6-4 13-1 11 5 8 1 9 1 8-1 9-3 9-3 16h-4l-2-2-5 9 1 18-1 11-3 4v18l2 13-1 29v7l1 4-2 17 1 7-3 6-1 5-6 2v15l-2 7 1 1-1 12-3 3 2 10-1 1h-10l-2-5 1-22 5-20 7-14 2-3-1-5-4-8-2-10-5-12-6-9-1-9 2-6-1-7-1-3v-10l5-4 6-4 4-4v-5l-8 1-4 5-7-1 1-5 4-6 6-15 3-5 4-11 1-5 1-6 3-5 1-9v-11l-6-1-9 7-8 7-2-1 3-4h2v-2l4-1v-3h2v-9l-1-2 2-5 8-5 5-1 2-4 4-2 1-19-4-14-2-10h2l-1-3 2-6h2v-8l-2-10 1-11-1-1 1-9 5-15 4-18 6-10 2-12 2-8 7-3 1-4-2-9 4-6 4-12-1-4 2-6 2-3v-6l-3-3-2-12 1-8 1-2 1-6 2-3 2-11-2-1-2-4-2-3 3-4 2-9 1-5-1-6 2-11 1-8 1-14-1-10-2-4v-10l3-8 4-2 5-6 1-4 3-13 4-7 2-8 3-9 11-9 2-6v-14l-1-2 3-7 4-6 5-10 3-9 3-1-1-3h2l1-5z" fill="#7E6038"/>
<path transform="translate(268,220)" d="m0 0 3 3-3 13-3 4h-2l1 4 5-1 4 3v2l9-1 7 6h3l2-10 4-2 1-9 4-3h3l1-4h2l2-5h4l1 9 3-1 1-5 2 1h7l8-1 2 4h-2l1 3h-2l1 4 13 3 2 1v2l14 2 2-1h7l2 4 5 2 1 7-1 2 3 1 1 5-1 3 2 5 7 2-1 4-13 4-42 10h-3v3l5 2 3 1 18 1 7 1-3 2-12 1-1 4 5 1 2 1v2h2l1 7 3 3 1 6-2 2-1 7 1 2 8 2v2l8 1 3 1-10 6-5 4-7 2-7 6-10 13-14 21-3-4v-2h-8l-5-5-6-9-12-6-6-4v-3h-2v-2l-5-2-1-3v-8l4-3h7l3 2h3l5-8 1-9 2-2v-6l-3-6-1-5 3-9-2-3-8-1-20 1v-2l-4-2-5-9-2-8-4-10-3-10-1-2v-11l5-13 3-9z" fill="#FFCC8A"/>
<path transform="translate(1158,808)" d="m0 0 2 1 1 6 1 21 3 25 4 39h-144l1-3v-12l1-2h2v-2l4-3 2-4h3v-9l-4-46v-8l1-1h108l14-1z" fill="#1A1007"/>
<path transform="translate(446,169)" d="m0 0h14v2l-2 1-2 7-3 3-2 7-5 10-6 9-1 5 1 1v15l-3 6-11 9-2 8-3 10-4 8-2 10-2 5-5 6-3 1-3 8v11l3 7v13l-1 7-1 8-2 11 1 10-3 7-1 4-2 4 4 4 1 6-2 10-2 3v5l-2 6 1 15 3 1 1 5-1 4-2 3-1 8 1 2-6 14-2 5 2 8-2 4-6 2-3 12-2 10-5 8-4 18-6 18v6l1 1v6l-1 7 2 8v6l-3 3-1 8v4l2 9 3 11-1 19-6 4-3 3-8 4-3 1-1 6 1 1-1 9h-2v3l-4 1v2h-2l-2 6-12 9-5 1v-4l6-12 4-5h2v-2h3v-3h-5v-4l5-3 3-9 4-9 1-2h2l1-4 4-3 8-4-4-6-9-10-2-3-1-5-5-4-5-10-4-11-1-7 1-4v-12l-2-18-2-3v-19l4-5 2-8 8-4 4-5 3-1 4-6 2-1-1-3-2-2 8-4 8-3 3-2-1-5-2-1-1-6h2v-5l-4-1v-3l5-5 7-9 1-2h5l1-4-2-2v-17l4-6h2v-5l3-4 5-10h-2l-1-7 1-9-1-5 1-5-3-9-1-7 4-4 11-5 1-2h-2l-2-5 1-7-1-2v-9l-1-2v-10l1-7 4-3h2l1-5 4-7 2-11 5-12 2-6 2-14 2-4h2l3-21 4-20 6-10 3-6z" fill="#926E40"/>
<path transform="translate(620,652)" d="m0 0h12l10 2 7 10 4 4 5 9v4l3 1 1-4h21l6 4 2 3v9l7-1 1 1 5-11 3-5 6-1 4 4 11 26 1 4h-9l-2-5h-15l-2 5h-9l-3 11-2 8-1 7-2 7 2-1h6l5 8 9 22-1 4-20 2-1 7-6 10-4 4-18 1h-36v-33h-8v8l-1 1h-7l-1-1v-32l3-1h15l-3-22-1-13-6-22-3-21v-11l5 1 3 2 3-2z" fill="#C6B8A2"/>
<path transform="translate(3,18)" d="m0 0 5 1 2 5 1 8 3 2 1 5 13 2 4 5 9 2 6 6h2l4-9 6-4 3-4h2l-1 11-1 6 1 2 1 11h2v-3h2l3 8v8l-1 3h-2l1 13 2 11v2l6-1 2 3-5 12-3 13-1 7h-2l-2 5 4-1 2-4 12-9 5-1 4-8 6-4 2-4h2l2-7 2-13 2-5h2l-1 14 2 10-2 9 1 17 4-4 5-8 2-9 5-10 3-2-2 7 1 4-2 5-3 4-4 7-2 6-6 1-2 5-3 3 1-13v-6l-2 1v2l-3 3-2 4h-2v2l-7 3-7-4-1 2v16l-2 11-3 8-5-1-2-7-2-16 1-8-7 5-2 19-3 7-3 5-5-1-4-8-2-1-9 2 1 3-4 4-6 4-3 5-5 3-4 4-3 2-12 1v-182h3z" fill="#8A683C"/>
<path transform="translate(1201,759)" d="m0 0 7 1 5 4 5 2h7l3-2 1-3h6l2 1 23 1v2h7l39 7 12 2 5 2 5 11 1 8v3 5l-4 8v18l-1 15-6 4-5-1-5-6-8-2h-5l-8 7h-11l-7-1-2 5-1 2h-2l-1 7-3 5-3 9v8l3 7 1 11-1 1h-29l1-12-1-5 1-9 1-5v-9l-2-7-2-4v-3h-2l-10-25-1-8h-2l-4-14-3-5-2-9h-2l1 56-2-4z" fill="#594021"/>
<path transform="translate(1313,773)" d="m0 0h8l29 3 22 1 39 1v1h-45l1 7-1 13 2 14v10l-3 15 1 9 9 16 4 12 8 18 2 7h-129v-7l-4-12v-8l4-11 3-5 1-5h2l2-5 3-3 5 1h11l8-7 10 1 4 2v2l3 1 2 3 6-1 3-2 1-15v-18l3-7 1-6-1-4 1-3-5-13-2-2-8-2z" fill="#342410"/>
<path transform="translate(1207,201)" d="m0 0h22l11 2 6 7 2 3 4 1 3 4 5 20-1 4 7 6 5 8v2l6 2 7 7 10 15 8 16 5 1 17 1 24 6 32 7 10 2h17l5-2v-2l3-3h2l1-5 8-9 11-8 18-11 23-12 22-8 21-5 2 1-1 7-6 8-20 20h-2l-1 3-8 6h-2l-1 2-2-1-2 4h-2l-2 5-3 1v2l-8 7-3 1v2l-6 3-20 2-10 2h-10l-10-2-3-1h-44l-5 1-6-2h-8l-14-4-9-7-2-3-5-3-3-3-4-1-8-4v-2l-3-1-3-4-6-3-2-5-5-2-10-5-9-4-5-5-8 4h-8l-5 1-16 2-10-1-5-3-2 2h-5l1-5h2l-1-6 10-9 8-6 7-8 2-4-2-6 1-8-15-9-1-5z" fill="#3E2F1A"/>
<path transform="translate(432,801)" d="m0 0 5 1 6 5 10 3 60 1-1 11-6 39-1 13 11 9 6 3v2l8 2v-2l5-2 2-3 4-2 10-10 4-6h2l1-3h2l1-4 7-10 9-16 5-15 1-7h3v7l-4 18-6 16-9 16-12 14-10 8-10 6v2l5 2v1h-115l2-5 2-12-2-11v-10l3-8 7-11 1-3v-18l-1-7-4-5-2-8z" fill="#342410"/>
<path transform="translate(588,609)" d="m0 0h2l7 31v3h102l248 1 2 4 4 16 1 5-3-4-4-7-1-5-5-3-4-1h-35l-5-2-14-1h-65l-15 2-8 8-13 6-16-1-10-3-9-4-10-4v-2l-13-1-39-1-80-1 3 26 4 21 6 22 3 21v8h-7l-2-14-2-7-2-14-4-21-2-1-1 3h-3l-4 2-2 3-1 5-2 44-1 1h-9l-1-11-1-27-1-9-3-8v-7h-2l1-7-5 1-1-4-7-2v2h-2l-3 10h-2l-1 7-3 7-5 1-2 5-4 4h-3l1 3-4 10-4 8-4 1v6l5 5 1 4h-6v8h6l1 35-1 3v13l1 7-11 1-1-2 3-11v-5l-3-1-4-8-8-13v-6l1-2h2l2-4 3-1-2-1h-7v-13l5-1-2-13 3-5h2l6-12 5-6 6-15v-10l5-11 6-17 2-9 9-1h34l2 1z" fill="#A59B8C"/>
<path transform="translate(1080,743)" d="m0 0h6l2 1h7v13l-4 1v3l4 1 3 3-9 12h-3l-2 4-3 3-3 1-1 7-6 5-3 1-35 1-15 1 15 1 3 3 1 6h-418l-1 22-1 14-4 13-3 12-7 15-4 8-3 3-1 3h-10l5-9h2l3-10 1-2h2l1-8 3-7 3-12 4-36 2-7 2-31 1-3 3 1v-3l-2 1v-3h-2v-3h7l1 6-1 27 42-1h38l258-2h73l-1-3-1-13-3-2-7-1v-1l26-2 1-1h7l4 1h10l6-4 1-2v-6l-5-5-10-4-2-4 1-1h7l9 2v-5l2 2 2-3z" fill="#A59B8C"/>
<path transform="translate(619,811)" d="m0 0h50l4 4 1 6 2 10 2 5 8 4 2 4-1 6-1 2v8l1 3 3 1v2l5 1v2l4 2 1 2-2 5 1 10 3 6 2 2v4h-109l1-5 3-1 1-5 7-13 2-5 3-12 4-13 2-29z" fill="#FECB89"/>
<path transform="translate(748)" d="m0 0h87l1 4-3 7 3 7 6 7v2l4 2 3 8 4 3 4 9 7 12 4 5 4 3 1 11 3 8h-4v-3h-5v2l-4-1-3-4-3-1-1 4v-4l-7-2-5 1v-4l-10-3-1-2-10-2v-2h-8l-8-3-4 2-1-4-6 1-7-6-1-7v-12l-7 13-3 3-4 2-6-1-2-1 1 8-3-1-4-5v7h-3-2l1 7-4 4h-10l-1-2 5-13 5-27v-18z" fill="#A07C4C"/>
<path transform="translate(0)" d="m0 0h115v11l-2 3v9l1 7-1 13 6-10 4-3h3l1 4-5 7-4 12-1 1h-6v3l4 1 5 3 2 8v7l-3 2-4-1-3-3-7 1-4 1-8-2-7 3-5 5h-2l-1 2v-7l2-10 2-7 2-12 3-3v-6l-8 14-3 14h-2v26l4 1v2h2l-1 4-4 4-3-3-3-7v-11l1-3v-8l-2-5v-3h-2v3l-3 1-1-12-1-4 3-15-5 5-5 3-5 10-5-2-1-4-11-2-4-5-13-2-2-3v-3l-3-2-2-11-1-2-4-1v2h-3z" fill="#110903"/>
<path transform="translate(460)" d="m0 0h118l-3 11-4 10-10 9-3 2-1-2-5-2-1-3-6-3-2 14-6-5-5 2-2 10h-2l-2 9-3 5h-2v2l-5 3-7 7-15-1-3-2h3v-2l-5-2-2-2v-3l-2-1v-8l-4-8-2-1-1 9 4 10v10l-7 12-5 6-5 5h-2l-1-6v-25l1-7h-2l-1 2-3-3v-2l-10-3v-8h-2v-5l3-8 5-1 1-6-2-2 1-6 3-5h2l1-5z" fill="#8F6E42"/>
<path transform="translate(328)" d="m0 0h54l-2 8h-3l-1-6v4l2 4h8l5 2 1 3 5 1 4 5 1 2 1 16 4-1 1 4-2 7h2v6l2-2 2 6 2 14-1 2-4-2 2-1-3-11-3 1-3 3v6l-4 8h-2l-2-8h-3l-2 5h-4l-3-13-1-15 2 2 1 3 2 1-5-15-1-8-5-5-3-6v-2h-5l2 3 1 7v4l-2 3h4l2-5h2l1 7 2 3 1 7-1 2h-2l-1 12v5h-3v2h-2l3 5 2 2-2 10-1 9 3 8v3h-2l-1-2-2 10h-5l2-7v-9l-3-5-5-3-1 10-3 7-9 17-1-4v-3l-4 8-4 1-5 10-12 12-1 4h-2l1-8 2-8 1 2 4-4 1-3-4 2-1 2h-2l-2-9v-13l1-1h5v-15l7-5 4-1 2-8h-3v5l-7-6 2-7 3-6 2-8 3-1 3 4 1 3 6 4 2 3 4 1 1-4 2-10 8 1 2-5-1-8-4-4-4 2-2 2-4-1-2-3v-5l7-3 1-3-10 3-3 9-8 6-5 4-4 7-6 4v-5l4-5-1-18 6-4 3-6v-11l-4-9z" fill="#1B1108"/>
<path transform="translate(967,691)" d="m0 0 28 28 8 7 12 12 1 6 1-1h27v-2h5v2h2l-1 4 5-3h17l2 3v5l-16-1 1 3 12 5 4 5v6l-4 5-4 2h-10l-4-1h-7l-1 1-14 1-5 1 4 3 1 16-75 1h-75v-1l54-1 11-6 3-5 4-1v-2l4-3 4 1 7-4 13-1v-32h-9l-7-8-3-6 1-9h-2l-1-5 2-3 2-14 3-1z" fill="#A69C8D"/>
<path transform="translate(559,670)" d="m0 0h6l2 6 5-1-1 7h2l2 10 2 5 1 9 1 38 11-1 7 1v6h-17l1 6 8 1v-5h1v5h6v6l-6 1-9-1v8h17v5l-4 1h-10v16l-1 7-1 1h-33l-12-1v-22h-3v21h-3l-1-4-1-17v-27h-6v-8h6l-2-4-5-5 1-6 4-2 6-13 1-7h3l1-3 4-4 1-2 5-1 3-10 1-4h2l1-7 2-3h2z" fill="#C7B8A3"/>
<path transform="translate(196,69)" d="m0 0h2l1 4v18l-1 3-1 12-2 1 1 3 3 29 7-8 4-11 1 2 3 1-2 10-4 12-4-1-1-5-3 2-2 4-6-1-6 12-5 2-2-1h-8l-4 4h-2v2l-5-1v-2l-3-1-3-10-2-7-5 1-3 1-3 14-3 18-3 1-5-10-1-3-15 3-3 3-7 2-4 2-9-3-1-4-4 1-3 22-4 5-5-1-4-10-4-2v2l-5 5-2 4h-2l-2 5-2 2-5-2-3 3v5l-4 4-7 1-1 1v9l-2 2h-4v-2l-4-1-9-4h-14v-14l1-1 11-1 5-3 5-5h2l2-5 5-4 5-2v-5l10-3 4 5 2 5h4l4-7 2-14 1-9 6-5h2v9l2 16 2 6h4l3-10 1-14v-10l2-3 8 4 6-2v-2l2-1 3-6h2l-1-3h3l1 12-1 6 4-7 6-2 2-7 3-5 4-5 2-6-2-1 1-5 4-4h2v8l3-4h2v9l4-1 6-8 3-1 1-6 4-1 1 10v38l3-3 3-6 7-8h3l1 11 5-17 3-7 2-7h-2v-4h2l2-8h2l2-6v-11l-1-7 2-3h2l1-6z" fill="#9D7542"/>
<path transform="translate(1182,766)" d="m0 0h3l1 22 3 24 1 1 2 19v10l-1 3h-2l3 5 3 3v2l6-2 4-5-2-12v-51h2l5 13 3 8 1 7h2l4 13 5 14 2 3v3h2l4 9 1 5v9l-2 10v8l1 2-1 10-1 1h-62l-2-11-5-48-1-5-1-21-1-7 9-5 5-4 6-10 2-6z" fill="#7D5F37"/>
<path transform="translate(115)" d="m0 0h15l1 5-2 4 1 8 2 1v9l-2 4 4 9 2 1v8l-1 1-2 10 4 1-1 10-1 9 4-1 7-14 11 1 5-5h3l1 4-1 7v9l-4 5-2 1 1 11v50l2 1-2 3h-2l-1-9v-39l-4 1-1 6-5 4-4 6-5 1 1-10h-2l-2 4-2 1 1-9-6 3-5 10-3 11-7 10h-2l-1 2-1-19 2-9-2-10 1-11 1-3h-2l-2 9-2 12-2 4-2 1-3 5-5 2-1 4-5 5-6 3-10 8-4 4-2-1 3-5h2l1-13 5-15 2-5-4-1h-3l-3-13v-13h1l1 11 3 9h3l4-7h-2v-2l-4-1-1-2v-21l1-3h2l1-11 8-16 3-2v7l-3 1-3 17-2 12-1 7 4-1 2-4 4-3 5-1 10 2 3-2h5l4 4 5-1v-7l-1-8-4-1-5-3v-3l6-1 4-12 5-7v-4l-7 4-5 9-2 1 1-19-1-2v-9l2-3z" fill="#1C1208"/>
<path transform="translate(385,341)" d="m0 0 4 3 2 6 1 8v14l-1 5v6l-1 2h2l2 9-1 6-4 6-3 4-2 7-1 5 1 9 2 1v3l5 2-1 14-6 2 1 2 6 2-2 11-2 6v7l-6 4-3 10-1 10-5 5-5 1-1 2h-2v13l-4 4-4 8-3 9 2 8v7l-8 2-2 4-1 11-2 4h-2l2 7 5 11-1 5-6 2-1-5-5-4-5-10-4-11-1-7 1-4v-12l-2-18-2-3v-19l4-5 2-8 8-4 4-5 3-1 4-6 2-1-1-3-2-2 8-4 8-3 3-2-1-5-2-1-1-6h2v-5l-4-1v-3l5-5 7-9 1-2h5l1-4-2-2v-17l4-6h2v-5l3-4 5-10h-2l-1-7 1-9-1-5 1-5-3-9-1-7z" fill="#926E40"/>
<path transform="translate(68,420)" d="m0 0 8 1 11 5 13 5 6 3 4 16 4 11v12l-5 20-6 5-9 3-5 4-3 4h-2v2h-2l-1 3-8 4v3l-11 9-3 1v2l-5 5-2 3v-11l1-2v-8l-5-10-4-5-3-6v-11l4-12 6-8 4-5h2l2-13 1-22 5-7z" fill="#AF8752"/>
<path transform="translate(217,852)" d="m0 0h6l9 6 8 6 5 6 3 1v2h9l6 5 5 8 10 7 2 7h-140l-1-4-4-2-3-5v-8l-4-1-1-3v-8l5-5 6-2 4 1 5 2 9 1 2 4 9-6 4-4 15-1 16-1 10-3z" fill="#916E40"/>
<path transform="translate(976,93)" d="m0 0 8 1 7-1 1 2 6-1 1-1 7 1v2l4 2 14 9 6 5 2 4 2 1 4 11 3 13 2 8 3 1 2 3 2 7 1 5-9 10-5 3h-10l-7-3-8-1v-2h-3l-1-6-4-1-2-6-5-3h-9l1-7-15-1 2-5-8 1v-2h2l1-6-6-1v-3h-2l-4-5 1-11 1-7 3-6 4-3h2v-2h2l1-3z" fill="#916D3F"/>
<path transform="translate(620,165)" d="m0 0h1v17l1 3 1 11 1 7-1 6-1 16-3 18v2h-2l-2 7-3 4-2 6h-2l-1 5-2 3h-2v2h-2l-2 4-7 8-2 5v7l17 1 6 3 6 9 3 2 1 8 1 6 4 9v3l-3 12-3 6-4 7-1 7 1 10 1 2v16l-1 10 4 2 1 4-4 4h-4l-1 7-3 1v2l-5 1-1 3v-2l-3 2-5-1-3-11 1-5 3-3 3-9-1-6 2-10 5-5v-11l2-4-1-6 3-5 3-3 3-8 3-4v-7l-4-2-1-5h-18l-3-1-12 1-9-1-5-9-3-9v-2h-2l1-5 6-11 6-8 8-13 1-3 11 1v-3l-5-2-2-4 11-21 8-20 5-16v-8l-2-7v-10l2 2 1-3h3l-1-3 3-3z" fill="#7D5F37"/>
<path transform="translate(130)" d="m0 0h27l-2 5h-2v3l5 2 1 3 5 1 1 4-5 11-1 5 9 3h3l4-8h2l1-5h5v5l-3 4 2 6 2 4v7l-2 3-1 9h11l4-2 1 4-3 12-3 3 1 7v11l-3 6h-2l-2 8h-2v4h2l-2 9-6 17-2 6h-1v-12l-5 3-6 8-1 2h-2l-1-5v-50l-1-6 5-4 1-3v-8l1-8-2-3-4 5-2 1h-6l-5-1-7 14-4 1-1-1 1-9 1-10-3-1 1-10 1-1 1-8-3-1-4-9 2-4 1-9-3-1-1-8 2-6z" fill="#110903"/>
<path transform="translate(1012,810)" d="m0 0h23l1 21 3 34v7l-1 2-3 1-3 5-3 1v2h-2v14l-2 3h-45l2-9-1-10-5-2-3-3-2-5 1-7h2l2-5 3-6 2-16v-7l1-2 12-2 8 2h6v-9l-1-8z" fill="#926E40"/>
<path transform="translate(946,623)" d="m0 0 2 3 3 6v8l-1 3 32 1 29 1v2h2l3 3v3h-2l4 4v2l5 1 5 3-1 9 1 3-1 2-7 2-1 2h-3l2 5h-2l-1 5-1 4-7 9h-2l-1 6 3 6 1 4-1 3-2 1 4 1 5 1v-2l7 1 12 3 1 5 10 3 1 2-3 2 1 2-3 1-23 1-1 6h-1v-10l-7-8-11-11-8-7-19-19-9-13-8-16-4-12-2-11v-13z" fill="#837B71"/>
<path transform="translate(835)" d="m0 0h28l5 6 3 6 6 6 6 10 7 12 3 5v2h2l8 15 6 11 8 12 5 3 3 6 5 7 4 8-1 5-4 3-4-1v-3l-10-1-4 1-2-4-3 2-1-3v-4l-3-1-4 1-7-2 2-5h-4l-3 4-2-1-2-4h-3v-2h-2v-5l-6 2v-6l4 2-3-7-1-11-5-5-7-9-6-12v-3l-4-2-2-2-3-8-5-5-6-8-1-4 3-8z" fill="#916D3F"/>
<path transform="translate(514,811)" d="m0 0h15l1 3 3 24 1 12 2-1-1-20 4-1-1-6v-11h44v9l-6 16-10 17-5 6-1 3-3 3h-2l-2 5-3 3h-2l-2 4-5 5-4 2-4 4h-3v2h-5l-3-2v-2l-5-1-10-9-3-2 1-13 6-39 2-10z" fill="#F9DCA7"/>
<path transform="translate(826,370)" d="m0 0 4 2 4 6 3 3v2l3-1 2-2 17 33 15 23 9 16 13 22 1 4h-2l-2-2-1 2-7-1-7-9v-2h-2l-6-9-2-1-4-7-5-7-8-5v-9l-1-3h-12l-2-1v2l-4 2-5-3v-9l-4-8-5-5-6 1-2 10v5l-5 5-2 1 1 10h-2v2l-7 3-6-1-4-5-4-8-3-23 1-9 1-8 4-3 3-1h8l6 1 2-1 4 2 1 2 4 1 1-6 6-2 2-5z" fill="#AE8651"/>
<path transform="translate(1207,201)" d="m0 0h22l11 2 6 7 2 3 4 1 3 4 5 20-1 4 7 6 5 8v2l6 2 7 7 10 15 8 16 3 2h-4l-8-4v-2l-3-1-3-4-6-3-2-5-5-2-10-5-9-4-5-5-8 4h-8l-5 1-16 2-10-1-5-3-2 2h-5l1-5h2l-1-6 10-9 8-6 7-8 2-4-2-6 1-8-15-9-1-5z" fill="#3F301B"/>
<path transform="translate(986,54)" d="m0 0 4 1 2 7h2l5 7 5 3 5 10 5 5v2h2v2l4 2 6 5 5 5 3 2 3 5 3 3 1 2v6l2 1 2 9 5 1 3 8 5 8 5 9 4 6-1 2v2l1 7 1 4-4 2-5-1h-8v8l-1 2-5 2h-3v-4l-14 1 2-5h-6l1-5-8 1-2 1-1-4h-10l-1-4-6 1 2-4 3-4v-3l-3-3-15-2 2-8h3l1 3-2 4 9-1 7 5v5l4 1 2 4-1 2 11 2 7 3h10l5-3 8-9-3-12-5-6-2-6-4-16-2-5v-3l-3-1-4-6-14-9-7-5v-2h-7l-4 2-4-1v-2l-9 2-6-1-4 4h-2v2l-6 4-2 5-2 12v8l3 1v2h2v3l6 1v1l-7 1-2-5h-13l1-2h2v-2l-9 1 2-4 6-2 1-5-2-10h-1l-2-13-1-4-2-10h2v-6l-3-3 1-4h5l3 4h3l6 3 2-5 3 3h2l3-5v-3l6-1 4-1 2-4z" fill="#89673B"/>
<path transform="translate(552,643)" d="m0 0h25l2 3 1 68v29h8v1h-9l-1-11-1-27-1-9-3-8v-7h-2l1-7-5 1-1-4-7-2v2h-2l-3 10h-2l-1 7-3 7-5 1-2 5-4 4h-3l1 3-4 10-4 8-4 1v6l5 5 1 4h-6v8h6l1 35-1 3v13l1 7-11 1-1-2 3-11v-5l-3-1-4-8-8-13v-6l1-2h2l2-4 3-1-2-1h-7v-13l5-1-2-13 3-5h2l6-12 5-6 6-15v-10l5-11 6-17 2-9z" fill="#B5A691"/>
<path transform="translate(32,667)" d="m0 0h3l2 9 4 5-1 5-1 1v7l-6 12-2 8-5 2h-3v3l1 4-4 4h-2v6l1 2 2 14 4 2 5 5 2 6 6 5 2 4-1 4-4 3-7 3-9 3-9 7-4 5-5 1-1-1v-126l3 1v2l8 1 1-4 4 1 6-2 7 2 1-3z" fill="#AF8752"/>
<path transform="translate(247)" d="m0 0h37v7h-6l-1 5-3 5-2 1v13l-3 8h5v2l2 1-2 8-4 8-10 5-4 1-2 4-6 9-2 4-7 5-5-5-1-6 3-3 3 1 1-9 2-9-4 1-2 10-2-1v-2l-3 3 2 1h-2l-1 4h-2v4h-2v2l-4 4 2 6v4h2v11l-2 1-1-5-2 1-2 9-1 2h-2l-2 5-5 10-3 7-3 4h-4v-21l2-6 6-1 1-2h2v-2l3-2 2-7-7-1-7 1v-9l4-8 1-4h2l1-3 9-4 6-6-1-8-1-6 3-6 2-5 4-4 6-5 4-4h3v-2h2v-3l5 1v2h-2v2h-2l-2 11 7-2h4l2-4 3-5v-5l-7-8-5-5z" fill="#110A03"/>
<path transform="translate(3,18)" d="m0 0 5 1 2 5 1 8 3 2 1 5 13 2 4 5 9 2 6 6h2l4-9 6-4 3-4h2l-1 11-1 6 1 2 1 11h2v9l-2 3v-2h-2l-2 6v12l-2 4h-2l-1-10-2 1-5-3v-2h-2l2 3-1 5-6 10-3 6h-2l-7-20-3-5-8 1-2-1-2 1-3 14-5 4h-2l-3-12-1-1v-70h3z" fill="#5A4122"/>
<path transform="translate(1080,743)" d="m0 0h6l2 1h7v13l-4 1v3l4 1 3 3-9 12h-3l-2 4-3 3-3 1-1 7-6 5-3 1-35 1-15 1 15 1 3 3 1 6h-150v-1l22-1 60-1-8-1v-2l-4 2v-2l-20-1-66-1h-163v-1l28-1 222-2h73l-1-3-1-13-3-2-7-1v-1l26-2 1-1h7l4 1h10l6-4 1-2v-6l-5-5-10-4-2-4 1-1h7l9 2v-5l2 2 2-3z" fill="#7C7771"/>
<path transform="translate(109,92)" d="m0 0h2l-1 14 2 10-2 9 1 17 4-4 5-8 2-9 5-10 3-2-2 7 1 4-2 5-3 4-4 7-2 6-6 1-2 5-3 3 1-13v-6l-2 1v2l-3 3-2 4h-2v2l-7 3-7-4-1 2v16l-2 11-3 8-5-1-2-7-2-16 1-8-7 5-2 19-3 7-3 5-5-1-4-8-2-1-9 2 1 3-4 4-6 4-3 5-5 3-4 4-3 2-12 1v-37h2l1 2 3 2 4 2 1-6 4-1 4 4h3l3-7h2l-1-3 2-9 2-2h4l2 3 4 1v-2h2l2-5 3-1 3 3 3 13 3 3 1-9 2-9 1-18 2-7v-2h2v2h2l1 5h2l1 5v14h-2l-2 5 4-1 2-4 12-9 5-1 4-8 6-4 2-4h2l2-7 2-13z" fill="#916D3F"/>
<path transform="translate(1093,135)" d="m0 0h7l-1 2-4-1v2l4 2 19 4 4 3v2h2l3 7 2 10 3 8v6h-2l2 6 10 10v2l4 1 1 5v2l4 2 4 13 1 5h-2l-1 10-3-1v-2l-14 2-6-2-5-4-4-10-2-9-2-6h2l-4-6-7-8v2h-2l-7-8-2-4-3-3-5-10-3-10-3-5v-10l3-4z" fill="#89673B"/>
<path transform="translate(366,17)" d="m0 0h7l-1 3v-2h-5l2 3 1 7v4l-2 3h4l2-5h2l1 7 2 3 1 7-1 2h-2l-1 12v5h-3v2h-2l3 5 2 2-2 10-1 9 3 8v3h-2l-1-2-2 10h-5l2-7v-9l-3-5-5-3-1 10-3 7-9 17-1-4v-3l-4 8-4 1-5 10-12 12-1 4h-2l1-8 2-8 1 2 4-4 1-3-4 2-1 2h-2l-2-9v-13l1-1h5v-15l7-5 4-1 2-8h-3v5l-7-6 2-7 3-6 2-8 3-1 3 4 1 3 6 4 2 3 4 1 1-4 2-10 8 1 2-5-1-8-4-4-4 2-2 2-4-1-2-3v-5l7-3 7-13 3-2z" fill="#3A2913"/>
<path transform="translate(972,810)" d="m0 0h40v1h-5l2 8v9l-1 1-9-1-7-1-2 1h-8v11l-2 14-6 11h-2v7l3 6 6 4 2 5-1 8-2 6h-63v-16l2-4 7-5 8-2 7 3 8 4 5 1 3-1 2-6 1-17-2-10-1-10 3-6 8-10h2z" fill="#A17D4D"/>
<path transform="translate(51,542)" d="m0 0h2l2 12 7 4v3l-2 2v2h6v9l5 2 5 14 3 7 1 13v13l-2 7-2-1-1-3 3-7h-2l-2 5-3 5-5 6-5 3h-2v3l-9-3-4-2 2-7-4-1-1-3h-2l-2-13-2 2-2-7-4-3-2 2-3-7 3-9 3-5 4-12 3-10 3-4 1-5 7-10z" fill="#AF8752"/>
<path transform="translate(587,811)" d="m0 0h23l-1 13-3 28-5 18-3 9h-2l-2 8-2 4h-2l-2 5-3 4h-45l-6-3 1-3 14-9 9-8 10-13 8-15 7-21 2-11z" fill="#F9DBA7"/>
<path transform="translate(105,132)" d="m0 0h3l1 12-4 9h6l1 8 8-1 3-1v-2l5 2 1 3h2l1 2 3-1 3-6 2-10 3-5 4 1-3 1-3 14-3 18-3 1-5-10-1-3-15 3-3 3-7 2-4 2-9-3-1-4-4 1-3 22-4 5-5-1-4-10-4-2v2l-5 5-2 4h-2l-2 5-2 2-5-2-3 3v5l-4 4-7 1-1 1v9l-2 2h-4v-2l-4-1-9-4h-14v-14l1-1 11-1 5-3 5-5h2l2-5 5-4 5-2v-5l10-3 4 5 2 5h4l4-7 2-14 1-9 6-5h2v9l2 16 2 6h4l3-10 1-14v-10l2-3 8 4 6-2v-2l2-1 3-6h2z" fill="#9E7542"/>
<path transform="translate(392,462)" d="m0 0 1 3-4 6 2 10-2 4-6 2-3 12-2 10-5 8-4 18-6 18v6l1 1v6l-1 7 2 8v6l-3 3-1 8v4l2 9 3 11-1 19-6 4-3 3-8 4-3 1-1 6 1 1-1 9h-2v3l-4 1v2h-2l-2 6-12 9-5 1v-4l6-12 4-5h2v-2h3v-3h-5v-4l5-3 3-9 4-9 1-2h2l1-4 4-3 8-4-4-6-9-10-1-5 5-1-1-5-4-10-1-1v-6h2l2-10 1-7 4-4h5v-7l-2-10 5-11 4-6 2-2v-11l1-2h2l1-3 8-2 2-13 3-10 6-4v-9l3-7h2z" fill="#8A683C"/>
<path transform="translate(619,811)" d="m0 0h15l5 12 6 13-2 5-1 1v13l3 7v7l-3 7 1 20-2 4h-46l1-5 3-1 1-5 7-13 2-5 3-12 4-13 2-29z" fill="#FADDA8"/>
<path transform="translate(287,124)" d="m0 0 4 5 14 10 3 3 4 1 2-4v6l-2 2 3 2 1 11 3 6v20l5 14-1 9-4 12h-2l-2-7-1-10-1-1-2-20h-2l-7 11-3 6-2-1-2-8-4-9-1-5h-1l-2 9-10 13-4 9h-2v-12l1-6-4-14-2-3-1-15-2-8v-4h7l-1 2h-4l2 12 5-1 4-9 7-6 2-8 1-11z" fill="#352511"/>
<path transform="translate(1035,810)" d="m0 0h122v1l-6 1-86 1 10 4 6 2-2 2h5v6l-7 8-7 10-4 8-7 5-3 8-3 10-6 8-3 1 1 15h-20l1-3v-12l1-2h2v-2l4-3 2-4h3v-9l-4-46v-8z" fill="#342410"/>
<path transform="translate(481,388)" d="m0 0 5 5 8 11 7 10 4 4 3 12 5 10 2 1 2 8h2l6 7-2 6h-2l2 19 8 34 4 14 6 34 4 12 5 25 4 9 1 9 2 8v5l-9 7h-2l-2-9-3-15-3-9-1-16-2-4-2-12-3-11v-8l3-1-4-4-3-7v-3h-2l-1-6v-8l1-6v-11l-5-15-2-7-2-4v-4l-3-1v-4l-4-1-3-2-3-9v-3h-3v-10l-2-6 2-3-1-3-4-2-4-9v-3h3v-7l1-1-2-7-8-11-3-5z" fill="#7E6038"/>
<path transform="translate(435,173)" d="m0 0 2 1-7 13-2 7-2 9-1 5-2 14-1 5-1 2h-2l-2 12-2 10-5 13-2 4-2 10-3 6-2 1v3l-5 3-1 10v7l1 2v9l1 2-1 7 1 5-1 1-7-1-6-7 1-2 6 7 3 1-6-9-1-4h-2l-4-10-1-1v-5l5-10-3-1 3-5 8-4v-5l2-2 1-15v-12l3-35 5-13 9-13 9-8 5-2z" fill="#9F7643"/>
<path transform="translate(601,339)" d="m0 0 4 1v5l2 3-1 5-2 1-3 10-2 5-7-1-2 4-8 4-1 4 5 2 2 6-4 8-7 4-4 1v2h-2l-1 9h-2l-1 7-1 3-5 4-8 1-7-5-6-10-5-15-3-7v-25l1-6 1 2h2v2l3 1-1 5v13l5 5 2 5 3 1-1 2 3-1 1-6 6-7 11-4 4-6v-6l4-4h6l6-4v-5l-5-3 1-3 11-3z" fill="#9F7643"/>
<path transform="translate(213,840)" d="m0 0h7v2l14 1 2-1 6 4 3 3 2 4 13 3 5 5v2l4 1 11 5 5 10 4 9 3 12h-12l-4-8-9-6-7-10-3-2-9-1v-2l-4-1-7-8-13-8-1-1h-6l-10 5-7 1-21 1-10 1-2 4-7 5h-2l-2-3-9-1-6-3-7 1-4 3h-2v10l1 3 3 1 2 10 5 5 1 4h-27l1-3 6-1 1-5-1-5 3-6 1-12 3-1 2-4 5-6 8 1 9 2h10v-2l8-3h13l11-3 9-4 6-5 1-2z" fill="#A17D4D"/>
<path transform="translate(1062,812)" d="m0 0h24l8 1 5 3 10 2 2 4v7l-1 2h-2l-2 9-5 6-6 1-3-1-3 7-7 7-1 14-5 6-5 4-2 5-3 2-3 6-2 3h-16l-2-9v-6l4-1 2-4 3-4 3-10 3-8 8-6 6-12 4-5 7-8 1-6-5 1v-3l-10-3-7-3z" fill="#20150A"/>
<path transform="translate(967,691)" d="m0 0 28 28 8 7 12 12 1 5-1 6-2 1h-10v26l-1 1h-6l-2-1-1-9-5 3-4 3-3 2v-31h-9l-7-8-3-6 1-9h-2l-1-5 2-3 2-14 3-1z" fill="#A69C8D"/>
<path transform="translate(693,387)" d="m0 0h16l6 3 1 3 5 2 2 3v23l-1 2 2 1v5h2l3 5 4 6-2 8-2 3h1l1 18-4 2-8-1-9-12v-2l-3-1-2-7-6-12-3-5-5-6v-7h-1v-9h1l1-8h-2l-1-4 1-7z" fill="#AF8752"/>
<path transform="translate(217,852)" d="m0 0h6l9 6 8 6 5 6 3 1v2h9l6 5 5 8 10 7 2 7h-8l-3-6-8-6-7 2h-5v-4l-3 1 2-4v2h3l-1-6-2 3-2-5-3-4-5-4-1-3-10-5-8 1-7 3-8 1-10-1-4-1h-7l-9 3-4 9-1 4 5 10v5l1 5h-35l-1-4-4-2-3-5v-8l-4-1-1-3v-8l5-5 6-2 4 1 5 2 9 1 2 4 9-6 4-4 15-1 16-1 10-3z" fill="#9E7542"/>
<path transform="translate(382)" d="m0 0h78l-2 6h-2l-2 5-1 6 2 2-1 6-1 1h-5l-1 7-2 6-4-2-3-2-2-7-4 1-3 1-2 8h-2v-6l-4 1-2 4h-2l-1 4-6 8-1 6-2 1 1-7h-2l1-10h-4l-1-2-1-14-4-6-6-2v-3l-5-1h-9l-3-9h2l1 6h3z" fill="#9C7442"/>
<path transform="translate(1158,808)" d="m0 0 2 1 1 6 1 21 3 25 4 39h-73v-7l3-6h7l2 1v-2l8-1 5 3 2-1v-2h6l2 1 1-8 6-2 13-7h2l-1-6 1-8v-19l-2-18-5-2-17-2-16-1v-1l44-1z" fill="#110A03"/>
<path transform="translate(563,553)" d="m0 0h6l1 21-1 8 1 10-3 9 10 2 1 1v40l-35-1 1-4 9-6 4-2-4-19-1-6-3-6-5-25-3-12 5-2h7z" fill="#AF8752"/>
<path transform="translate(385,341)" d="m0 0 4 3 2 6 1 8v14l-1 5v6l-1 2h2l2 9-1 6-4 6-3 4-2 5-5 4-1 5 3 8 1 8 1 4-5 3-6 4-2 6 2 2 2 10-8 10-3 3v6l3 1-1 5-1 2h-2l-1 5-9 5h-2v2l-5 3-5 2-7 3-4 1-1 4-2 3v10l1 10 1 19 1 13-2 5-2-3-1-7 1-4v-12l-2-18-2-3v-19l4-5 2-8 8-4 4-5 3-1 4-6 2-1-1-3-2-2 8-4 8-3 3-2-1-5-2-1-1-6h2v-5l-4-1v-3l5-5 7-9 1-2h5l1-4-2-2v-17l4-6h2v-5l3-4 5-10h-2l-1-7 1-9-1-5 1-5-3-9-1-7z" fill="#AF8752"/>
<path transform="translate(638)" d="m0 0h27l5 6 2 1-2 7 2 1 2-5 4 1 3 5v4l-9 2v2h7l1 6-5 2 6 17 7 14 1 8-10 7-2-1 1-4h2v-3h3l1-4-10-1-5-2-3-6-5-6-7-3h-5l-4 5-4 1 2-6 1-2v-10l-3-11-1-10-1-1z" fill="#9F7B4C"/>
<path transform="translate(0)" d="m0 0h51l-1 16-1 7 1 8v13l10-5-2 4-4 2-5 10-5-2-1-4-11-2-4-5-13-2-2-3v-3l-3-2-2-11-1-2-4-1v2h-3z" fill="#342410"/>
<path transform="translate(506)" d="m0 0h72l-3 11-4 10-10 9-3 2-1-2-5-2-1-3-6-3-2 14-3-3-1-7v-7h-4l-3 5-4 2-3 7h-2l-1-16-2-4v7l-4 10v15l-5 9-3 7-5 6h-3l3-12 4-7 1-7 4-1v-4l-3 1-1-5 1-9h2l-2-6-1-5 1-7-5 1z" fill="#140C04"/>
<path transform="translate(66,64)" d="m0 0h2l3 8v8l-1 3h-2l1 13 2 11v2l6-1 2 3-5 12-5-5-3-9 1-5-3-3-3 2-4 7-5 1-5-4-2 4-2 7h-4l-6-2-1-2-1-11-1-4h-3v-2h-3l2 14 2 3v3l4 2 3 5v11l-7-1-6-2-3-8-2-5-7 1-4 1v2h-5l-1-1v-32l2 1 2 9v3h2l1-2 3-2 2-8 1-6 4-2 4 1 5-1 5 8 5 15v3l3-3 5-10 3-4-1-7h2v2l6 2 2-2v12l2-1 1-8v-7l3-6 3-1v-7z" fill="#7E6038"/>
<path transform="translate(1034,819)" d="m0 0h1l4 46v7l-1 2-3 1-3 5-3 1v2h-2v14l-2 3h-24l-2-5-1-11 1-8-1-5 6-11 5-5 5-3 5-4 3-3 2-8 5-10 4-2z" fill="#7E6038"/>
<path transform="translate(1323,775)" d="m0 0 5 1 5 12 1 1v15l-2 10 1 10-5 35-3 2v-2l-10 1-1 2 3 1-3 2h-3l-7-8h-1v2l-7 1-5 1-3 3-5 3-3 3-5-1-7-1-3 3-1 3v8l1 7-1 10-4 1v-7l-4-12v-8l4-11 3-5 1-5h2l2-5 3-3 5 1h11l8-7 10 1 4 2v2l3 1 2 3 6-1 3-2 1-15v-18l3-7 1-6-1-4 1-3-5-13z" fill="#3E2F1A"/>
<path transform="translate(588,609)" d="m0 0h2l8 36 3 16 5 25 5 26 1 15h-1l-3-19-4-21-2-1-1 3h-3l-4 2-2 3-1 5-2 44h-9l-1-29-1-68-3-2 4-1h7l2 1z" fill="#B3A491"/>
<path transform="translate(755,587)" d="m0 0h9l5 2 3 9 8 4 9 2 3 2-2 6-3 3-2 5v8l3 10 1 4 27 1v1h-90v-1h27l-2-12 2-13-1-9-1-6v-13l1-2z" fill="#AF8752"/>
<path transform="translate(1044,741)" d="m0 0h5v2h2l-1 4 5-3h17l2 3v5l-16-1 1 3 12 5 4 5v6l-4 5-4 2h-10l-4-1h-7l-1 1h-27l-1-1v-33h27z" fill="#938B80"/>
<path transform="translate(447,643)" d="m0 0h91v1l-35 2-13 2h-6l-3 2 1 5-4 3h-5l-4-4-1-5-11-1h-9l-11 2-9 6-8 9-1 26 1 87 1 3 9 9 5 4 4 2v2h81v3l-20 1-53 1-1 2h16l16 1 8 1 6 2 13 1v1h-52l-10-3-11-9-8-9-7-12-2-5v-100l4-11 7-9 7-6z" fill="#726E6B"/>
<path transform="translate(384,414)" d="m0 0v3l-1 5 1 9 2 1v3l5 2-1 14-6 2 1 2 6 2-1 6-4 4-2 6h-5l-3-2v2h-2v3l-6 4-2 4 5 5-1 4-4 9-5 5-3 6v7l-3 3-6 3-1 1-7 1-2 2-1 5-2 3-2 7-1 1 1 8-1 2-2 6v11l1 4-1 3 1 14-2-2-3-9 1-12-2-23v-8l-1-13 1-4 3-6 10-5 5-1 3-3h3v-2l9-5h2l1-5h2l1-7-2-1-1-6 7-8 4-5-2-10-2-4 4-6 5-3 4-2-2-12-3-9 2-5z" fill="#9F7643"/>
<path transform="translate(980,810)" d="m0 0h32v1h-5l2 8v9l-1 1-9-1-7-1-2 1h-8v11l-2 14-6 11h-2v7l3 6 6 4 2 5-1 8-2 6h-58l1-6 5-10 6-2 6 1 12 5 15 5 4 2 5 1 1-1v-10l-4-6v-2l-3-1-3-6v-8l3-8 5-7v-12l2-13 3-4z" fill="#92754E"/>
<path transform="translate(1155,795)" d="m0 0h2l3 13-3 2-14 1h-41l-65-1-3-7-1-1-28-1v-1l13-1 128-1 7-2z" fill="#726C65"/>
<path transform="translate(68,83)" d="m0 0h1l1 11 3 9h3l3-4h2v-2l5-2v-2h2l2-4 3-3 6-1 6 3 3 2h4l2 5 3 3-1 8-1 1v9l-1 4h-2l-1 12v6h-1l-1-5v-8l2-9-2-10 1-11 1-3h-2l-2 9-2 12-2 4-2 1-3 5-5 2-1 4-5 5-6 3-10 8-4 4-2-1 3-5h2l1-13 5-15 2-5-4-1h-3l-3-13z" fill="#24180C"/>
<path transform="translate(956,798)" d="m0 0 62 1v1l15 1 3 3 1 6h-150v-1l22-1 60-1-8-1v-2l-4 2v-2l-20-1-66-1h-163v-1l28-1z" fill="#8A837A"/>
<path transform="translate(374,3)" d="m0 0 2 3 2 4h8l5 2 1 3 5 1 4 5 1 2 1 16 4-1 1 4-2 7h2v6l2-2 2 6 2 14-1 2-4-2 2-1-3-11-3 1-3 3v6l-4 8h-2l-2-8h-3l-2 5h-4l-3-13-1-15 2 2 1 3 2 1-5-15-1-8-3-5h3l-1-8-4-8z" fill="#382712"/>
<path transform="translate(665)" d="m0 0h26l2 4 3 3 2 5 4 2-1 3-3-1 3 6v3l4-1 1-3-1-4h3l3 14v4l4 2-1 22h-3l-6-7-2-1v-4l4 1v2h2l-3-5v-2l-6-1-1-4 2-4-4-1-3-5v-2l-6-3 3 11 4 2-1 8-4 17-3 1-8-15-5-15v-1l5-1v-6h-7l-1-3 10-1-2-5-1-4-4-1-2 5-3-1 2-5 1-2-3-1-4-4z" fill="#160E05"/>
<path transform="translate(578,546)" d="m0 0 3 3 3 6 1 1-1 7-1 4 2 5 1 9 2 6 2 1v21h-2v35h-10l-1-40-10-3-1-3h2l1-8-1-12 1-10v-15l-5 1v-2l10-5z" fill="#916E41"/>
<path transform="translate(516,717)" d="m0 0h1l2 13 3 5 7 5v3h-6v8h6l1 35-1 3v13l1 7-11 1-1-2 3-11v-5l-3-1-4-8-8-13v-6l1-2h2l2-4 3-1-2-1h-7v-13l5-1-2-13 3-5h2l2-4z" fill="#8C857C"/>
<path transform="translate(1364,781)" d="m0 0 2 1 1 4-1 13 2 14v10l-3 15 1 9 9 16 4 12 8 18 2 7h-32l-1-1-1-15 5-22 1-16 1-22 1-14v-18z" fill="#3F301B"/>
<path transform="translate(115)" d="m0 0h15l1 5-2 4 1 8 2 1v9l-2 4 4 9 2 1v8l-1 1-2 10 4 1-3 12-5 13h-3l-4-12-2-8v-5l-4-1-5-3v-3l6-1 4-12 5-7v-4l-7 4-5 9-2 1 1-19-1-2v-9l2-3z" fill="#20150A"/>
<path transform="translate(196,69)" d="m0 0h2l1 4v18l-1 3-1 12-2 1 1 3 3 29 7-8 4-11 1 2 3 1-2 10-4 12-4-1-1-5-3 2-2 4-6-1-6 12-5 2-2-1h-8l-4 4h-2v2l-5-1v-2l-3-1v-2l4 2h4l2-4 3-5 7-1v-11l6-16 2-7h-2v-4h2l2-8h2l2-6v-11l-1-7 2-3h2l1-6z" fill="#9F7B4B"/>
<path transform="translate(1182,766)" d="m0 0h3l1 22 3 24 1 1v16l-1 3 1 10-1 2h-3l-4-4-10-4-8-2-2-3-3-23 9-5 5-4 6-10 2-6z" fill="#906C3F"/>
<path transform="translate(353,745)" d="m0 0 2 1 1 10 3 6v11l2 6-2 6 1 10v10l-2 10 1 4-2 6h-2l-1 2-3-9-4-13-8-13-1-9 2-6-1-7-1-3v-10l5-4 6-4z" fill="#926E40"/>
<path transform="translate(1204,828)" d="m0 0 5 2 6 8 5 5 2 9h2l1 10-2 10v7l-1 5-6 1-3-2v-2l-5-2-3-3-9-5-5-8-5-11v-6l2-1 7 8v2l6-2 4-5-1-6z" fill="#89673B"/>
<path transform="translate(584,777)" d="m0 0h3v24h24v-8h1v16l-2 2-4 1h-11l-8-1-1 4v-5h-3v7h-1v-6h-44l1 17-3 1 1 20-3 1v-17l-1-8v-14l4-1-6-1v-6h5l-1-3-3-1h2v-21h3v22h45z" fill="#ADA08F"/>
<path transform="translate(105,132)" d="m0 0h3l1 12-4 9h6l1 8 8-1 3-1v-2l5 2 1 3h2l1 2 3-1 3-6 2-10 3-5 4 1-3 1-3 14-3 18-3 1-5-10-1-3-15 3-3 3-7 2-4 2-9-3-1-4-4 1-1 5-2-3v-25l2-3 8 4 6-2v-2l2-1 3-6h2z" fill="#9E7542"/>
<path transform="translate(454,811)" d="m0 0h59l-1 11-6 39-2 12-5-5-5-8-3-17 1-10-1-6-2-8h-2v-6l-33-1z" fill="#5A4122"/>
<path transform="translate(525,499)" d="m0 0 3 4 7 26 6 34 4 12 5 25 4 9 1 9 2 8v5l-9 7h-2l-2-9-3-15-3-9-1-16-2-4-2-12-3-11v-5l4 5h3l-2-13-6-29-4-18z" fill="#84643A"/>
<path transform="translate(946,623)" d="m0 0 2 3 3 6v8l-1 3h8l9 2 4 12 3 6 3 18 1 2 1 16 1 3h-3l-7-7-9-13-8-16-4-12-2-11v-13z" fill="#8A837A"/>
<path transform="translate(562,600)" d="m0 0 7 1 8 2 1 1v40l-35-1 1-4 9-6 4-2v-7l3-3-5-13 1-4z" fill="#CC9E62"/>
<path transform="translate(773,678)" d="m0 0h12l6 3 5 6 1 2v10l-4 7-5 4-3 1h-12l-6-3-4-5-2-6 1-9 4-6z" fill="#FDFDFC"/>
<path transform="translate(858)" d="m0 0h5l5 6 3 6 6 6 6 10 7 12 3 5v2h2l8 15 6 11 8 12 5 3 3 6 5 7 4 8-1 5-4 3-4-1v-3h-5v-1h6l-4-9-5-4-5-5-8-10-4-10-5-8-2-7-6-11-2-2-3-7-3-3-2-7h-2l-4-8-4-5v-2l-3-1-6-10z" fill="#89673B"/>
<path transform="translate(446,39)" d="m0 0h1v8l7 1 5 5h3l-2 19h-2l-2 12h-2l-1 5h-2l-1 8h-3v2l-8 6-4-8-1-4v-8l4-13 6-20 1-1z" fill="#8A683C"/>
<path transform="translate(727,743)" d="m0 0 16 1 6 4 4 5 1 2v8l-3 7-6 5-11 2h-11l-1-1v-32z" fill="#FDFDFC"/>
<path transform="translate(740,506)" d="m0 0 2 3h5l6 10 3 11-1 11-1 8v12l-3 6-5-1-4-4v-6h-2l-3-9-1-4-1-13-1-3v-11l2-6h2z" fill="#AF8752"/>
<path transform="translate(966,137)" d="m0 0h5l-1 5h-2v2l9-2-3 6h11l1 1v5l-2 3h11l5 2v2l3 1-1 5-5 6 4-2 3 1v3h10l2 4 1-1h8v4l5 1-1 4h13v4l6-1 5 3 1 3 4 2 1 2 4 1 1 4h7l3 3h-2v3l5-5 2 1-12 13-3 3h-3l1-4 6-8-9-1 1-5-9 3-5-1v-3h-2l1-7 2-4-9 1-2-2v-3l-15 3h-4l1-8-3 1-3-1-5 1 1-7-8-1h-3l-6 3h-2l2-4 8-9 1-2-8 1-2-2 1-5-12 2 1-4h2l1-6-18-2h-2l-1-4 4-4h2v-2l-3-1z" fill="#5A4122"/>
<path transform="translate(460)" d="m0 0h43l-3 9-6 5-3 5h-4v6l-4 2v-17l-3-2-2 5-9 8-9 5-9 7h-3v-7l5-1 1-6-2-2 1-6 3-5h2l1-5z" fill="#120A03"/>
<path transform="translate(579,643)" d="m0 0h7l4 2h-2v98h-8l-1-29-1-68-3-2z" fill="#8A837A"/>
<path transform="translate(416,184)" d="m0 0 2 1-1 5-1 10-3 13v11l-2 4v12l-1 4-2 5-5 8v2h-2v2l-3 1-2 4-1-5v-12l3-35 5-13 9-13z" fill="#AF8752"/>
<path transform="translate(514,811)" d="m0 0h15l1 3 2 15v6h-1v-5h-2l1 6-3 5-3 3-5 11-3 6-3-1-1 3-7 5 1-15 6-37z" fill="#F9C786"/>
<path transform="translate(109,92)" d="m0 0h2l-1 14 2 10-2 9 1 17 4-4 5-8 2-9 5-10 3-2-2 7 1 4-2 5-3 4-4 7-2 6-6 1-2 5-3 3 1-13v-6l-2 1v2l-3 3-2 4h-2v2l-7 3-7-4-5 7-2 9-2 3-3-11v-4l-3-2 14-11 5-1 4-8 6-4 2-4h2l2-7 2-13z" fill="#8F6B3E"/>
<path transform="translate(352,629)" d="m0 0 3 3v9l5 1-2 5-10 5-3 1-1 6 1 1-1 9h-2v3l-4 1v2h-2l-2 6-12 9-5 1v-4l6-12 4-5h2v-2h3v-3h-5v-4l5-3 3-9 4-9 1-2h2l1-4 4-3z" fill="#936E40"/>
<path transform="translate(358,683)" d="m0 0 4 4-1 9 1 6-3 5v3l3 3 3 13-1 5-6 10-3 1-1 3-1-5-8 1-4 5-7-1 1-5 4-6 6-15 3-5 4-11 1-5 1-6 3-5z" fill="#8A683C"/>
<path transform="translate(826,14)" d="m0 0 3 1 1 2 3 1 2 5h-2l3 4 1-2 2 4 5 1 3 2 2 5 4 3 4 9 7 12 4 5 4 3 1 11 3 8h-4v-3h-5v2l-4-1-3-4-3-1-1 4v-4l-7-2-5 1v-4l-6-2 4-2 6 2 7-1 2-14h-2l-5-8-2-5-3-1-4-4-2-3-6-3-8-16z" fill="#9D7543"/>
<path transform="translate(603,744)" d="m0 0h22l4 2 3 6v7l-4 7 1 4 3 3-1 4h-8l-3-6v-3h-8v8l-1 1h-7l-1-1z" fill="#FDFDFC"/>
<path transform="translate(992,130)" d="m0 0 4 1 8 4h6l4 5 3 8v3l-3 4v5l4 5 1 7-4 2h-3v-2h-3l-1-6-4-1-2-6-5-3h-9l1-7h-4v-2l-5-1v-4l2-1h6l2-7 2-1z" fill="#91754E"/>
<path transform="translate(691)" d="m0 0h44l-2 6-6 8-9 14-4 6h-3l-3-11v-6l-2 1 1 4h-2v2l-4 1-3-6v-3h3v-2l-4-2-2-7-3-1z" fill="#906C3F"/>
<path transform="translate(611,811)" d="m0 0h7l-1 35-4 13-3 12-7 15-4 8-3 3-1 3h-10l5-9h2l3-10 1-2h2l1-8 3-7 3-12 4-36z" fill="#604625"/>
<path transform="translate(461,71)" d="m0 0h1l1 20 5-5h2l2-4 7-10 1 3-5 7 3 9 4 17 3 5 4 7v6l-4 4h-5l-4-4-5-12-6-7-2-6h-9l-3-2 2-6 3-5 2-2 2-1z" fill="#A07C4C"/>
<path transform="translate(803,678)" d="m0 0h19l6 3 3 5-1 8-4 7 2 4 3 4v2h-8l-3-3-2-5-8-1v9h-7l-1-3v-29z" fill="#FDFDFD"/>
<path transform="translate(642,743)" d="m0 0 18 1 5 3 2 4v8l-4 7 1 4 4 6-7 1-3-1-4-7-8-1 1 2v6l-7 1-1-1v-32z" fill="#FEFEFE"/>
<path transform="translate(638)" d="m0 0h17l3 7 4 6 3 1-1 7-5 9-9 12-2 1v6l-5 5h-2l2-6 1-2v-10l-3-11-1-10-1-1z" fill="#120A03"/>
<path transform="translate(583,810)" d="m0 0h3v7l-4 18-6 16-9 16-12 14-10 8-8 5h-8l-2-4h3v-2l5-2 2-3 4-2 10-10 4-6h2l1-3h2l1-4 7-10 9-16 5-15z" fill="#5F4525"/>
<path transform="translate(402,343)" d="m0 0 1 3-2 11 1 10-3 7-1 4-2 4 4 4 1 6-2 10-2 3v5l-2 6 1 15 3 1 1 5-1 4-2 3-1 8 1 2-4 8-2 3h-2l2-8-7-2v-2l5-2v-7l1-6-4-3v-3l-3-1-1-12 7-11h2v-3l2-1 3-10-1-9-3-1 1-4h2l1-9 4-7-2-5 2-11z" fill="#916D3F"/>
<path transform="translate(1163,841)" d="m0 0h1l2 12 5 2 4 9 3 9 9 18 1 6h4l4-3 4 1 1 5h-32l-2-11-4-38z" fill="#5A4122"/>
<path transform="translate(578)" d="m0 0h9l9 8v2h2v3h2l1 11-5-1-3-6-4-2-3 1-2 4-4 2-1 2-4 1-2 2-4 5-7 5h-6l-3-6-4 5h-2v5h-3l-3-4 3-10 1-5 4 1 3 2 1 3 5 2h2l11-11 6-17z" fill="#9C7849"/>
<path transform="translate(874,678)" d="m0 0h20l5 3 3 4v7l-3 6-5 3-12 1v9h-7l-1-3z" fill="#FDFDFD"/>
<path transform="translate(950,744)" d="m0 0h7l9 10 6 8 1-18h8v32l-5 1-5-3-10-13-4-4v19l-5 1-2-1z" fill="#FDFCFA"/>
<path transform="translate(419,780)" d="m0 0 4 2 5 7 7 5 4 2v2h81v3l-20 1-53 1-1 2h16l16 1 8 1 6 2 13 1v1h-52l-10-3-11-9-8-9-5-8z" fill="#766958"/>
<path transform="translate(663,678)" d="m0 0h20l6 4 1 2v10l-3 5-4 2-12 1v9h-8z" fill="#FDFDFD"/>
<path transform="translate(529,786)" d="m0 0h1l2 13 3 1 1-2v5h-5v6h29v1l-27 1 2 22v14l-2-3-3-19-1-14-16 1-21-2-10-3h-12l-24-2 1-3 53-1h20l-1 8 10-1-1-6v-13z" fill="#78746E"/>
<path transform="translate(686,743)" d="m0 0h6l5 8 9 22-1 4h-7l-2-5-16-1-1 5-4 1-5-1 7-16 6-14z" fill="#FDFDFD"/>
<path transform="translate(638,391)" d="m0 0h2l1 12v10l-3 6-4 6h-2l-2 6-5 8-6 13-4 10-3 2 4-37 5-5 5-2 3-11 2-10 4-2 2-5z" fill="#C4975D"/>
<path transform="translate(424,664)" d="m0 0 5 1 8 5 1 6-1 5-2 8-3 9 1 1v5l-3 1v3l-4 3v9l-4-3-2-8v-39l1-4z" fill="#8A837A"/>
<path transform="translate(68,83)" d="m0 0h1l1 11 3 9h3l5-5h2l1 6 3-1 1 2 5 2 1 4-2 10-3 4h-2l-1 7 3 1-8 4-10 8-4 4-2-1 3-5h2l1-13 5-15 2-5-4-1h-3l-3-13z" fill="#392712"/>
<path transform="translate(851,743)" d="m0 0 6 1 4 7 9 21-1 5-7-1-1-5-16 1-3 5h-6l-1-3 11-25 3-5z" fill="#FDFDFB"/>
<path transform="translate(710,677)" d="m0 0 5 1 6 12 8 19v2h-9l-2-5h-15l-2 5h-8l1-5 4-8 5-14 4-6z" fill="#FDFDFC"/>
<path transform="translate(921,677)" d="m0 0 6 2 8 17 5 12v3h-8l-2-5h-16l-1 5h-9l3-9 6-14 4-8z" fill="#FDFDFC"/>
<path transform="translate(851,677)" d="m0 0 5 1 4 6 9 22v5h-7l-2-6-16 1-2 5h-8l2-6 10-24z" fill="#FDFDFC"/>
<path transform="translate(450,169)" d="m0 0h10v2l-2 1-2 7-3 3-2 7-5 10-6 9-1 5 1 1v15l-3 6-11 9-2 8-3 10-4 8-2 10-2 5-5 6-3 1-3 8v11l3 7v13l-1 7v5l-3-6v-12l2-5-4-10-1-9 4-10 4-3h2l2-4 3-7 5-18 3-7 3-9 5-5 6-7 1-3v-13l-1-9 2-9 4-8 4-4 3-6 1-9z" fill="#8A683C"/>
<path transform="translate(351)" d="m0 0h31l-2 8h-3l-1-6h-2l3 11 3 5 1 8-2 1-5-2-1-8h-7l1 5-6 2-2 5-3 3-2-4-2-14-1-8z" fill="#120A03"/>
<path transform="translate(538,643)" d="m0 0h14v1h-9l-1 9-8 22-2 2-4 1-1 5 2 3-3 14-2 3h-4v-9l2-9 2-3-2-12v-7l2-4 2-9 1-3z" fill="#8A837A"/>
<path transform="translate(578,743)" d="m0 0h12l7 1v6h-17l1 6 8 1v-5h1v5h6v6l-6 1-9-1v8h17v5l-4 1h-22l-1-1v-31z" fill="#FEFEFE"/>
<path transform="translate(619,803)" d="m0 0h127l-2 2 1 2-11 1h-115z" fill="#B5A691"/>
<path transform="translate(231)" d="m0 0h16l5 8 8 7 2 3-1 7-5 7-5 2h-6l2-11h2v-2h2l-1-2-4-1v3l-5 1-4-2-1-6-5-2-2-3v-6z" fill="#352510"/>
<path transform="translate(759,743)" d="m0 0h24l2 1-1 6h-17v7h16v6l-15 1-1 7h18v5l-2 1h-23l-1-1-1-32z" fill="#FDFDFC"/>
<path transform="translate(597,643)" d="m0 0h7l6 40 8 31 3 21v8h-7l-5-36-8-39-3-20z" fill="#8A837A"/>
<path transform="translate(83,174)" d="m0 0h1l-1 16-4 5-5-1-4-10-4-2v2l-5 5-2 4h-2l-2 5-2 2-5-2-3 3v5l-4 4-7 1-1 1v9l-2 2h-4v-2l-4-1-9-4h-14v-2l9-2h7l7 1 2-1 2-6 9-4h5l2-5 4-5h6l2-4 7-6 2-5 3-2 3 1 4 9v2l6-3 1-6h2z" fill="#A17D4D"/>
<path transform="translate(1017,744)" d="m0 0h26v5l-1 1h-17v7h16l1 5-1 1h-15v8h17l1 1v5h-26l-1-1z" fill="#FDFDFC"/>
<path transform="translate(928,743)" d="m0 0h13l2 1v5l-1 1h-17l1 6 16 1v5l-1 1-15 1v6l17 1 1 4-1 1-13 1h-10l-3-3v-29l1-1z" fill="#FDFDFC"/>
<path transform="translate(233,128)" d="m0 0h7l2 1 2 6 5 2v13h2l-1 3-2-1-1-5v-8l-5 5-3 7h-2l-2 5-3 1-1 4-4 7-2-3-4-12v-15l2 3 3-7 3-3h2v-2z" fill="#261A0D"/>
<path transform="translate(1012,810)" d="m0 0h23l-1 15-5 3-4 9-3 10-2 1-4 4-10 5-2 5-5 10 1 9-1 8 2 11h-5l-2-7v-7l3-10v-10l10-13 9-7 4-10-1-10-1-7v-8h-6z" fill="#89673B"/>
<path transform="translate(740,678)" d="m0 0h12l6 3-1 5-4 1-12-2v3l9 3 8 5 1 7-4 6-4 2h-13l-6-3-1-1v-5l4-1 7 3h6l1-4-11-4-5-5v-8l5-4z" fill="#FDFDFC"/>
<path transform="translate(1055,744)" d="m0 0h17l2 3v5l-16-1 1 3 12 5 4 5v6l-4 5-4 2h-10l-8-3-1-1v-6l3-1 6 3 7 1 2-5-11-3-6-5v-7l4-5z" fill="#FDFCFB"/>
<path transform="translate(136,394)" d="m0 0 6 2 2 6v9l-3 14-5 5-10-2-3-4v-8l4-14 5-5z" fill="#AF8752"/>
<path transform="translate(212,53)" d="m0 0 1 2 2 1-3 4-5 10-1 8-4 8-1 9 7-2 5 1 2 1-1 7-4 2v2h-2l-1 3h-6l-1 6-1 21 3 1-4 3-3-30v-4h2v-12l1-3v-22l-2-1 4-2v-2l8-5 3-3z" fill="#271A0C"/>
<path transform="translate(800,743)" d="m0 0h7l3 5 6 17v2h2l1-7 5-12 2-5h8l-3 10-9 22-2 2h-7l-5-10-8-21z" fill="#FDFCFB"/>
<path transform="translate(655)" d="m0 0h10l5 6 2 1-2 7 2 1 2-5 4 1 3 5v4l-10 2-4 1-2 7 2 5 1 2v6l-9 1-5-1-2 2h-3l-1 3-1-5 5-5 8-11 4-8 1-5-4-1-6-9z" fill="#987140"/>
<path transform="translate(143,142)" d="m0 0 4 1-3 1-3 14-3 18-3 1-5-10-1-3-15 3-3 3-7 2-4 2-9-3-1-4-4 1-1 5-2-3 1-7 4-2 7 6 4 1 5-15h7l1 8 8-1 3-1v-2l5 2 1 3h2l1 2 3-1 3-6 2-10z" fill="#A07C4C"/>
<path transform="translate(283,114)" d="m0 0 4 2 7 10 8 7 5 4h3l2-2 1 6-1 2-5-1-7-6-10-7-3-4-2 16-3 5-6 5-4 9-3 1-2-1-2-6v-6l4-1 4-10v-4h2v4l5-1 1-7v-13z" fill="#23180C"/>
<path transform="translate(298)" d="m0 0h26l2 4-1 5v7l-3 7-2 10-4-1-5-8-4-13-5-6-4-4z" fill="#342410"/>
<path transform="translate(578,546)" d="m0 0 3 3 3 6 1 1-1 7-1 4 2 5 1 9 2 6 2 1v21l-2-3v-3h-2l-1 2-3-4-2-13-4-11-1-16-3-2 1-10 1-2z" fill="#7E6038"/>
<path transform="translate(1170,661)" d="m0 0 3 1 6 9 2 5v72l1 18-6-3-1-92-5-7z" fill="#746E66"/>
<path transform="translate(391,15)" d="m0 0h5l5 6 1 2 1 16 4-1 1 4-2 7h2v6l2-2 2 6 2 14-1 2-4-2 2-1-3-11-3 1-3 3v6l-2-2v-6l-3-8-1-14-2-11-1-7-2-5z" fill="#594021"/>
<path transform="translate(1176,763)" d="m0 0 4 2 3 2-1 16-5 12-6 7-8 5h-4l-2-6v-5l6-5h2l2-4 5-8 2-6 1-9z" fill="#898279"/>
<path transform="translate(1160,807)" d="m0 0 3 1v2l3 1 2 7 4 6 5 3 4 1 1-8 1-1h5l1 10v6l1 7-1 2h-3l-4-4-10-4-8-2-2-3-3-23z" fill="#89673B"/>
<path transform="translate(441,63)" d="m0 0 1 4 4 6 4 4 1 3 5 2v2h-2l-1 5h-2l-1 8h-3v2l-8 6-4-8-1-4v-8l4-13z" fill="#926E40"/>
<path transform="translate(227)" d="m0 0 4 1-1 2v6l4 4 2 1 2 6 6 2-4 3h-2l-2 4-5 4-6 2-3-4v-2l-3-1-3-6 2-9 6-7z" fill="#20150A"/>
<path transform="translate(395,273)" d="m0 0 1 4 4 1-2 5h-2v2l-5 2 1 10v10l1 8v13l3 6-7-1-6-7 1-2 6 7 3 1-6-9-1-4h-2l-4-10-1-1v-5l5-10-3-1 3-5 8-4v-5z" fill="#AF8752"/>
<path transform="translate(353,745)" d="m0 0 2 1 1 10 3 6v11l2 6-2 6 1 10v10l-2 10 1 4-2 6h-2l-1 2-3-9-1-9h2l2-10-1-10v-8l1-11-3-8 1-11h-2l1-4z" fill="#8A683C"/>
<path transform="translate(510,437)" d="m0 0 5 4 2 8h2l6 7-2 6h-2l1 10-1-3h-2l2 9v6l-4-2-2-5v-4l-4-1-2-3-1-9 2-3h2l-1-6-6-2-2-1 1-6h2v-2l4-1z" fill="#916D3F"/>
<path transform="translate(613,768)" d="m0 0h7l1 6-1 28 2 1-4 1v5h103v1h-102l-1 22h-1v-18l1-3h-7l-1 4v-5l1-1 2-31 1-3 3 1v-3l-2 1v-3h-2z" fill="#8F8474"/>
<path transform="translate(1034,811)" d="m0 0h1l7 70 1 19h-18l1-3v-12l1-2h2v-2l4-3 2-4h3v-9l-4-46z" fill="#5A4122"/>
<path transform="translate(1157,761)" d="m0 0h13l3 2v8l-3 9-7 10-4 4h-3v-27z" fill="#8A837A"/>
<path transform="translate(986,743)" d="m0 0h27l1 1v5l-1 1h-10v26l-1 1h-6l-1-1-1-25-9-1v-6z" fill="#FDFBF8"/>
<path transform="translate(466,493)" d="m0 0 2 2 2 3 3 1v5l-2 5 9 2 1 5-1 3 4 6 2 10-4 1-2-3v-4h-6l-3 5-2-4-2-3-2-12-1-5 1-16z" fill="#342410"/>
<path transform="translate(415,5)" d="m0 0h6l4 4v13l-9 8-1 2h-2l-1 6-1 8-2 2h-3l1-6 1-20 2-14z" fill="#AE8651"/>
<path transform="translate(837,799)" d="m0 0h69v1l31 1v1h-229v-1l28-1z" fill="#8B847B"/>
<path transform="translate(447,643)" d="m0 0h91v1l-35 2-13 2h-6l-3 2 1 5-4 3h-5l-4-4-1-5-11-1h-12z" fill="#797063"/>
<path transform="translate(565,303)" d="m0 0 2 2-1 3 5 12 2 2v3h13l9-1 2 1h16l2 1v3h-24l-4 1-17 1-10-4-1-1v-11l1-3 1-7 2-1 2 1z" fill="#8A683C"/>
<path transform="translate(984)" d="m0 0h30l1 11-3 6h-5l-5 1-4-2-5-5-9-7z" fill="#5A4122"/>
<path transform="translate(648,102)" d="m0 0v3l-2 4h2l2 5 2-4h2l-1 7-5 12-5 8-3 7-5 6-1-2 3-5h-2v-11l3-16 6-10h2z" fill="#86653A"/>
<path transform="translate(1146,644)" d="m0 0 9 2 9 6 7 8 1 5 4 6v92l-3-1-1-91-8-13-5-5-5-4-8-3z" fill="#4B371E"/>
<path transform="translate(1103,226)" d="m0 0 2 1v2l5-1 6 4 1 3-1 2 3-1h7l6 5-1 9 6-1v4l2 1-8 12-4 1-6-6v-8l4-6v-5l-6-2-5 3-3-1v-3l3-3 1-3h-8l-4-5z" fill="#5A4122"/>
<path transform="translate(637,470)" d="m0 0 4 1 2 5v6l-4 10-4 5-3 1h-8l-2-1 1-8 3-7 6-8z" fill="#AF8752"/>
<path transform="translate(584,777)" d="m0 0h3v24h24v-8h1v16l-2 2-4 1h-11l-8-1-1 4v-5h-3v7h-1l-1-7 3-1z" fill="#988974"/>
<path transform="translate(1035,187)" d="m0 0h7v4l6-1 5 3 1 3 4 2 1 2 4 1 1 4h7l3 3h-2v3l5-5 2 1-12 13-3 3h-3l1-4 6-8-9-1 1-5-9 3-5-1v-3h-2l1-7 2-4-9 1-2-2v-3l-2-1z" fill="#594021"/>
<path transform="translate(529,743)" d="m0 0 23 1v5l-1 1-9 1v24l-1 2h-7v-27h-10v-6z" fill="#FEFEFE"/>
<path transform="translate(438,12)" d="m0 0 9 1v2h3l-1 9-2 9-2 6-4-2-3-2-2-7-4 1-3 1-1 3-1-2 1-10 8-8z" fill="#A07C4C"/>
<path transform="translate(196,69)" d="m0 0h2l1 4v18l-1 3-1 12-2 1 1 3 1 18h-2l-1-16-7 4-2 6h-1l1-7h-2v-4h2l2-8h2l2-6v-11l-1-7 2-3h2l1-6z" fill="#8F6B3D"/>
<path transform="translate(1144,246)" d="m0 0h2l1 5 1-2h3l-1 7 7-5h3v5h11l1 4 4-2 1 1v5l5-1-1 5 4-1-5 5-3 1-2 4-5 3 1-4 2-4 1-9 1-2-5 5-4 2 1-7h-2l-2 4-2 1-3-5-6-1-1 1h-5l-2-3h-1l1-8 1-2-5 3 2-4z" fill="#5A4122"/>
<path transform="translate(382)" d="m0 0h4v4l4 1 4-3h7v6l-2 4 3 1 1 2h2l2-2 1 6-2 20h-3l-1-2-1-14-4-6-6-2v-3l-5-1h-9l-3-9h2l1 6h3z" fill="#AC8450"/>
<path transform="translate(875,744)" d="m0 0h8l1 25 13 1 1 5-1 1-21 1-1-1z" fill="#FDFDFD"/>
<path transform="translate(1180,674)" d="m0 0 2 1 3 12v79l-4-1-1-17z" fill="#46331A"/>
<path transform="translate(578)" d="m0 0h9l9 8v2h2v3h2l1 11-5-1-3-6-4-2-1-4-5 3-1 3-7 2-3-2 3-9z" fill="#977140"/>
<path transform="translate(130,51)" d="m0 0h4v7l-1 2 4 1-3 12-5 13h-3l-4-12-2-8 1-5 5-4h2l1-4z" fill="#5C4223"/>
<path transform="translate(982,743)" d="m0 0 4 1-1 6h9l1 1v25h-1l-1-9-5 3-4 3-3 2v-30z" fill="#B7A893"/>
<path transform="translate(1204,834)" d="m0 0 1 2h2v2l4 1 6 9 1 6-3 7-7 3-10-5v-2l-2-1 5-3 4-5-1-6z" fill="#916D3F"/>
<path transform="translate(774,685)" d="m0 0h10l4 4 1 9-5 6-7 1-4-2-3-5v-8z" fill="#C7B8A2"/>
<path transform="translate(484)" d="m0 0h19l-3 9-6 5-3 5h-4v6l-4 2v-17l-2-4z" fill="#120B04"/>
<path transform="translate(317,68)" d="m0 0 4 1 3 10 2 2-1 9-6 10-2 5h-2l-1-17-3-16v-2z" fill="#271A0D"/>
<path transform="translate(386)" d="m0 0h35l-2 2h6v7l-2-1v-2h-8l-4 2-2 14-1 17-2-1v-10l1-13-4 1-4-4 2-10-9 2-3 2-3-2z" fill="#9D7542"/>
<path transform="translate(169,11)" d="m0 0 4 1 4 7v10h-2l-2 5-3 5-11-5 1-7 2-4 3-1 3-10z" fill="#24180B"/>
<path transform="translate(956,798)" d="m0 0 62 1v1l15 1 3 3 1 6-4-1v-5l-1-1-50-1-94-1v-1l18-1z" fill="#837B71"/>
<path transform="translate(503)" d="m0 0h3l-2 6 6-2-1 12 2 2v5h-2v12l3 1v4l-4 1v7h-1l-1-18-4 1-1-2-1-5-1-7-4-5 5-5z" fill="#5A4122"/>
<path transform="translate(1100,156)" d="m0 0 4 2v2l6-2 6-1 6 9 1 6-1 3-3 1-3-1v-2l-6-1h-6l-3-2-2-9z" fill="#926E40"/>
<path transform="translate(688,23)" d="m0 0 4 2 3 3 2 5 4 1-1 8 6 1 3 4v3h-2l-1-2h-3l-10 15-2 1v-13l3-11v-4l-4-2-2-6z" fill="#7B5B33"/>
<path transform="translate(246,138)" d="m0 0 2 1v8l1 5h2v6l-3 2-2-3-4 7-4 5-6-1-3-3 2-5 1-3 4-4 1-2h2l1-5z" fill="#AB834F"/>
<path transform="translate(730,750)" d="m0 0h9l4 2 3 6v6l-4 5-5 2h-6l-1-1z" fill="#CABAA3"/>
<path transform="translate(72,146)" d="m0 0 2 2 2 11 2-2 2-9 3-2 1 15-2 11-3 8-5-1-2-7-2-16 1-9z" fill="#926E40"/>
<path transform="translate(583,810)" d="m0 0h3v7l-4 18-6 16-9 16-8 9h-2l2-5 8-11 7-13-1-1-4 7-4 1 6-11 7-14 4-12z" fill="#3B2A14"/>
<path transform="translate(526,512)" d="m0 0 2 3 3 9 6 29 1 10-2 1-5-5-1-5 3-1-4-4-4-10-1-13z" fill="#CA9D61"/>
<path transform="translate(172,102)" d="m0 0 2 2 1 3v7l-4 13-3 3-9 3v-15l4-4h3l1-5 2-3h2z" fill="#1A1007"/>
<path transform="translate(1031,777)" d="m0 0h11v1l-5 1 2 5 3 1-1 6-4 3-1 4-3 1h-75v-1h73l-1-3-1-13-3-2-7-1v-1z" fill="#837B71"/>
<path transform="translate(494,13)" d="m0 0 4 1 2 3 1 7 1 5 3 1 2-1v21l-3 5-2 4-2-12 2-6-2-7v-8l-1-3-7 3-5-1-1-7h5z" fill="#977140"/>
<path transform="translate(1155,795)" d="m0 0h2l-1 3-8 3-53 1h-18l-43-1-1-2 113-1 7-2z" fill="#594021"/>
<path transform="translate(393,337)" d="m0 0 2 1 1 8-1 9 1 14-1 3h-2v12l2 1 2 5v6l-4 9h-2v3h-2l-2 5-2 1 1-5 6-9 1-6-1-9h-2v-12l1-1v-17l-1-5-3-7v-3z" fill="#9F7643"/>
<path transform="translate(619,803)" d="m0 0h27l34 1 1 3-8 1h-54z" fill="#C6B8A3"/>
<path transform="translate(1207,247)" d="m0 0 5 1v2l10 1v-2h3l-1 3h-2v2l-7 2-2 4-5-1-2 6h-4-7l-2-6 10-9z" fill="#5A4122"/>
<path transform="translate(556,744)" d="m0 0h8v32l-1 1h-6l-1-1z" fill="#FEFEFE"/>
<path transform="translate(340)" d="m0 0h11l2 14 1 8-2 3-7-1-3-7-3-12z" fill="#22160B"/>
<path transform="translate(289,82)" d="m0 0 3 1 3 7v20l2 3 1 8-4-1-6-12-2-9-1-10 2-5z" fill="#170E06"/>
<path transform="translate(902,744)" d="m0 0h8v32l-7 1-1-1z" fill="#FDFDFD"/>
<path transform="translate(835,685)" d="m0 0 9 1-3 10-7 15h-3l-4-6-2-4 7-14z" fill="#C8B9A3"/>
<path transform="translate(656,800)" d="m0 0h80v1l10 1v1l-102 1-22-1-2-2z" fill="#A69C8D"/>
<path transform="translate(345,719)" d="m0 0 8 1 1 5-3 9-6 6-4 6-7-1 1-5 4-6z" fill="#A07C4C"/>
<path transform="translate(597,643)" d="m0 0h7l4 28v10l2 10v5h-3l-6-28-3-20z" fill="#8A8279"/>
<path transform="translate(503,876)" d="m0 0 7 4 5 2 4 3 3 1v2l5 2 2 3h6v4l5 2v1h-8l-7-4-15-3-7-3v-2h7l5 1-11-8z" fill="#24180B"/>
<path transform="translate(171,135)" d="m0 0h3l1 11 1-5h1v8l-3 2h-4l-5 8-4 2-2-3-3-1 1-14h1v9l3-3 3-6z" fill="#997241"/>
<path transform="translate(523,743)" d="m0 0h6v1h-5v6h10v27l2 1h-2v21h-3l-1-4-1-17v-27h-6z" fill="#B2A490"/>
<path transform="translate(1528,249)" d="m0 0h12l7 4 2 3-1 3-3 1-4 4-12-2 1-7-3-1z" fill="#3E2F1A"/>
<path transform="translate(219)" d="m0 0h8l-2 6-7 9-3 6-2 7-5 5-1-2v-11l6-11h2l1-5h2z" fill="#100903"/>
<path transform="translate(346,860)" d="m0 0 1 2h2l2 4v6l-2 5 1 7-1 12-1 4-5-1-1-10 1-16z" fill="#8A683C"/>
<path transform="translate(520,12)" d="m0 0 2 2 2 13-1 6 3-1-2 5h-2v3h-2l1 4-3 1v7l-6 2 1 3-4 3 2-8 4-7v-15l4-10v-7z" fill="#946E3E"/>
<path transform="translate(538,803)" d="m0 0h46l-1 4-2 1h-44z" fill="#C5B7A2"/>
<path transform="translate(822)" d="m0 0h13l1 4-3 7 3 7 6 7v2l4 2-1 3-6-3-2-2-1 2-4-6 1-2v-3l-4-1-3-3-2-5v-6h-2z" fill="#92764E"/>
<path transform="translate(447,798)" d="m0 0h73v3h-75l-2-2z" fill="#6C5940"/>
<path transform="translate(116,12)" d="m0 0h5l-1 5 4-2 2-2-1 6-9 21-4 4 1-19-1-2v-7z" fill="#5C4223"/>
<path transform="translate(226,17)" d="m0 0 6 1 4 2 1 2v6l-6 5-6 2-5-8v-7l4-2z" fill="#342410"/>
<path transform="translate(244,3)" d="m0 0 4 1 4 4 8 7 2 3-1 7-5 5-2-1v-4h-2l-1-7-4-1-3-7z" fill="#5F4525"/>
<path transform="translate(529,786)" d="m0 0h1l2 13 3 1 1-2v5h-5v6h29v1l-27 1 2 22v14l-2-3-3-19-1-14h-11l1-2 10-1-1-6v-13z" fill="#8C8378"/>
<path transform="translate(462,52)" d="m0 0h2v17l8 1 3-5h2v5l-2 4-2 2-1 4-3 4 1 2-5 5h-2l-1-6z" fill="#8B693C"/>
<path transform="translate(568,550)" d="m0 0 3 1v9l2 9 2 16v15h-5l-1 2-3-3 2-1 1-8-1-12 1-10v-15l-5 1v-2z" fill="#9F7643"/>
<path transform="translate(613,768)" d="m0 0h7l1 6-1 27-2-3-5 1h-1l1-21 1-3 3 1v-3l-2 1v-3h-2z" fill="#8C857B"/>
<path transform="translate(87,38)" d="m0 0h1v7l-3 1-3 17-2 12-3 7-1 8-2-1v-11l2-17 3-10 7-12z" fill="#5C4323"/>
<path transform="translate(500,889)" d="m0 0 10 3 15 3 7 4v1h-34z" fill="#F4C485"/>
<path transform="translate(349,710)" d="m0 0 7 3v3h2v2h2v5l-1 3v6l-3 1-2 4-3 3h-7l3-3h2l2-5 2-8-1-3-6-1z" fill="#926E40"/>
<path transform="translate(542,592)" d="m0 0 3 3 7 34 1 5-4 2-3-8-3-13-2-8-1-11z" fill="#906C3F"/>
<path transform="translate(519,469)" d="m0 0h2l4 20 2 12-1 1 2 9-1 4-2 11v13h-1l-1-6v-8l1-6v-11l-5-15-2-7-2-6h2l3 3z" fill="#83643A"/>
<path transform="translate(212,53)" d="m0 0 1 2 2 1-3 4-5 10-1 8-5 9-2 4-1-22-2-1 4-2v-2l8-5 3-3z" fill="#463219"/>
<path transform="translate(873,679)" d="m0 0h1l1 32-5 1h-7v-1h6l-3-9-5-13 2-4 6 2 1 8 2 1z" fill="#C7B9A3"/>
<path transform="translate(367,18)" d="m0 0h5l3 7 6 6 2 12 3 7v4l-3-1-1-3-6 3 1-4h2l-1-9-2-3v-7l-3 3-1 2h-4l2-6-1-3z" fill="#B88D56"/>
<path transform="translate(611,811)" d="m0 0h7l-1 35-1 5h-1v-21l-2 11-2 1v-20l-1 3-2 18-2 4 1-12 2-19z" fill="#725531"/>
<path transform="translate(600,391)" d="m0 0h1v9l1 3-3 8-4 4v6l3 9v1h-8l-2-1-2-6 4-10 7-8 1-7z" fill="#8A683C"/>
<path transform="translate(525,499)" d="m0 0 3 4 7 26 8 47v6l-2-4-5-21-1-8-6-29-4-18z" fill="#6B4F2C"/>
<path transform="translate(516,452)" d="m0 0h3v2l4-1 2 5-2 4h-2l1 10-1-3h-2l2 9v6l-4-2-3-9 1-5v-4h-2l3-6h-2v-4h2z" fill="#9F7744"/>
<path transform="translate(733,691)" d="m0 0 5 4 12 5-1 4-1 1h-6l-7-3h-3l-1 5h-4l-3-9 7-4z" fill="#C9BAA3"/>
<path transform="translate(424,22)" d="m0 0 4 1 1 3-2 12h-2v-6l-4 1-2 4h-2l-1 4-6 8-1 6-2 1 1-7-2-1 4-2 1-8 2-6h2l2-4z" fill="#977142"/>
<path transform="translate(604,643)" d="m0 0h95v1l-14 2-80-1v5h-1z" fill="#ADA18F"/>
<path transform="translate(585,615)" d="m0 0 2 2 1 27-9-1v-17l2-3h2l1-4z" fill="#7C5E37"/>
<path transform="translate(588,609)" d="m0 0h2l7 31v4h-9z" fill="#CA9D61"/>
<path transform="translate(1448,883)" d="m0 0 6 1 6 12v4h-13l-2-7v-6z" fill="#3F301B"/>
<path transform="translate(182,887)" d="m0 0 7 1 5 4-1 8h-15l-1-1v-7z" fill="#9F7643"/>
<path transform="translate(327,664)" d="m0 0h6l2 1-1 8-5 8-4 2-1 4-2 2-3 2-3-1 2-5 5-10 4-5h2v-2h3v-3h-5z" fill="#AE8651"/>
<path transform="translate(194,111)" d="m0 0h1l1 23-5 1-3-5v-2h-2v-12z" fill="#AF8752"/>
<path transform="translate(115)" d="m0 0h15l1 5-3 8-4-2h-8l-2 4-2 1 2-5z" fill="#1C1208"/>
<path transform="translate(527,783)" d="m0 0h1l1 19 1 7-11 1-1-2 4-14z" fill="#B0A390"/>
<path transform="translate(576,577)" d="m0 0 2 3 3 10 2 11 2 3 3-1 1 6-1 25h-1l-1-17-3 6-4 3 1-7 3-6-5-19-1-10z" fill="#906D3F"/>
<path transform="translate(480,8)" d="m0 0 4 2v16l2 1-1 5h-3l-1-2-6-1-1-11z" fill="#997241"/>
<path transform="translate(581)" d="m0 0h6l9 8v2h2v3h2l1 11-5-1-4-7-1-5-5-3z" fill="#1E1308"/>
<path transform="translate(758,56)" d="m0 0 2 4-1 4-4-1 1 7-4 4h-10l-1-2 4-10 7 1v-3l5-2z" fill="#8F6C3F"/>
<path transform="translate(545,22)" d="m0 0 4 1 3 2 1 3 5 2 2 1v5l-4 1-3-6-4 5h-2v5h-3l-3-4 3-10z" fill="#906B3E"/>
<path transform="translate(757,745)" d="m0 0h2l1 32-4-2-1-2-4-1-4 2 5-7 4-21z" fill="#C9BAA2"/>
<path transform="translate(125,45)" d="m0 0h4l1 8-2 4-8 5-5-3-4-2v-3h7l3-5z" fill="#342410"/>
<path transform="translate(464,624)" d="m0 0h4l1 7-3 6 1 4 10-1v-2h4l1 5h-22l-1-2h3v-6l-1-7 1-3z" fill="#3F301B"/>
<path transform="translate(789,56)" d="m0 0 10 1 6 3 9 2 2 2h7l2 1v2l9 1 1 4 3 1h-4l-1-2-10-2v-2h-8l-8-3-4 2-1-4-6 1-7-6z" fill="#89673C"/>
<path transform="translate(774,685)" d="m0 0h10l4 4 1 9-4 5h-2l-3-12h-9l1-4z" fill="#BAAA94"/>
<path transform="translate(110,91)" d="m0 0h2l3 4 2 3-1 8-1 1v9l-1 4h-2l-1 12v6h-1l-1-5v-8l2-9-2-10z" fill="#382713"/>
<path transform="translate(265,130)" d="m0 0 3 1-5 4-4 6-4 4-3 5h-3v-13l9-5z" fill="#160E05"/>
<path transform="translate(210,120)" d="m0 0 1 2 3 1-2 10-4 12-4-1-1-5-6 3v-11h1l1 8 7-8z" fill="#946E3F"/>
<path transform="translate(129,109)" d="m0 0v3l-1 5 1 3-2 5-3 4-4 7-2 6-6 1-2 5-3 3 1-7 1-5 2 3 4-4 5-8 2-9 5-10z" fill="#7E5F37"/>
<path transform="translate(0)" d="m0 0h14l-5 15-4-1-5-6z" fill="#110A03"/>
<path transform="translate(938,892)" d="m0 0 7 1 7 3 9 1 4 3h-32l2-5z" fill="#926E40"/>
<path transform="translate(220,888)" d="m0 0 2 4 6 3 2 5h-17l-2-7 4-4z" fill="#8A683C"/>
<path transform="translate(810,684)" d="m0 0h10l3 2v6l-2 3-10 1-1-1z" fill="#CBBBA3"/>
<path transform="translate(44,621)" d="m0 0h5l4 4v3l7-2h7l1 2h-2v3l-4 4-6 1h-3l-2-1-1-9-5-2z" fill="#CC9E62"/>
<path transform="translate(179,132)" d="m0 0 1 3 6-2 2 1 1 4-3 10-4 4-4-2 2-7v-2h-3z" fill="#9E7542"/>
<path transform="translate(120,120)" d="m0 0h1v10l-7 11-3 1-1 2v-6l1-1 1-13z" fill="#150C04"/>
<path transform="translate(82,135)" d="m0 0 2 1-2 4v7l-2 3-2 9-2 3-3-11v-4l-3-2z" fill="#86653A"/>
<path transform="translate(223,764)" d="m0 0 3 1 2 4v3h-2l-1 4-4 3h-4l-1 2v-2l-2-1 1-5-1-4 9-4z" fill="#AF8752"/>
<path transform="translate(646,750)" d="m0 0h11l2 1v8l-3 2h-9l-1-1z" fill="#F5D8A5"/>
<path transform="translate(194,99)" d="m0 0h1v10l1 1 1 18h-2l-1-16-7 4-2 6h-1l1-7h-2v-4h2l2-8h2l1-2 2 4 2-1-1-3z" fill="#9C7442"/>
<path transform="translate(119,10)" d="m0 0h5l4 3v5l3 3v5l-5 3h-3l-2 4h-2l6-18-2 2h-3l1-5h-5z" fill="#23170B"/>
<path transform="translate(327,81)" d="m0 0 4 2 2 3 1-4h3l-1 8-6 3-5 3-1 6h-2l-2-6 4-6z" fill="#BF935B"/>
<path transform="translate(441)" d="m0 0h19l-2 6h-2l-2 5-2 2-2-1v-2l-8 1 3-3h4l-1-4h-4l-1 2-2-1z" fill="#85643A"/>
<path transform="translate(1019,778)" d="m0 0h12l1 2 1 19h-75v-1h73l-1-3-1-13-3-2-7-1z" fill="#8B847B"/>
<path transform="translate(926,763)" d="m0 0h15v7h3l-1 2-17-1-1-1v-6z" fill="#C6B8A3"/>
<path transform="translate(238,55)" d="m0 0h4l-3 18h-4l-2 3-4-1 1-6 2-6h2l1 2 2-9z" fill="#47331A"/>
<path transform="translate(768,763)" d="m0 0h14l3 8h-18v-7z" fill="#CBBBA3"/>
<path transform="translate(1160,646)" d="m0 0 5 3 13 13 5 12 2 2 1 6h-2v-2h-2l-1-5-2-1-4-8-9-11-7-6z" fill="#140C04"/>
<path transform="translate(397,400)" d="m0 0h2l-2 5v5l-2 6 1 15 2 1-5-1-2-1v-3h-2l-1-13 5-3z" fill="#8A683C"/>
<path transform="translate(546,331)" d="m0 0 3 1 3 5-1 5-2 5-3 2h-3v-2h-4l2-5z" fill="#9F7643"/>
<path transform="translate(882,684)" d="m0 0h9l3 1v9l-2 1h-9l-1-1z" fill="#CABAA1"/>
<path transform="translate(716)" d="m0 0h19l-2 6-5 7h-2l-2-6-7-4z" fill="#A07C4C"/>
<path transform="translate(984,799)" d="m0 0h34v1l15 1 3 3 1 6-4-1v-5l-1-1-50-1-1-2z" fill="#7C7770"/>
<path transform="translate(72,79)" d="m0 0h1l1 14 4 1v2h2l-1 4-4 4-3-3-3-7v-11l1-3z" fill="#140C04"/>
<path transform="translate(671,684)" d="m0 0h9l3 2v7l-3 2h-9z" fill="#CBBBA3"/>
<path transform="translate(353,648)" d="m0 0 1 2-1 3h-2v3h-2v12l-13 11h-3l3-4h2v-2l4-1v-3h2v-9l-1-2 2-5z" fill="#89683C"/>
<path transform="translate(615,827)" d="m0 0h1v18l-3 14-4 11-2-2 1-6 3-13 3-19z" fill="#3C2B16"/>
<path transform="translate(421,762)" d="m0 0 2 2 3 11h2l3 7-1 4h-3v-2l-3-1-2-5h-2v-14z" fill="#8B847B"/>
<path transform="translate(612,750)" d="m0 0h11v10l-1 1h-10z" fill="#ACA190"/>
<path transform="translate(438,12)" d="m0 0 9 1v2h3l-1 9-1 5-1-4-3 1-5-4v-7z" fill="#9C7442"/>
<path transform="translate(533,811)" d="m0 0h5l1 17-3 1 1 20-3 1v-17l-1-8z" fill="#C09A66"/>
<path transform="translate(442,644)" d="m0 0h5l-2 4-10 3-8 6-7 8-3 8-1-4 5-10 9-10 5-3z" fill="#756A5C"/>
<path transform="translate(662,842)" d="m0 0h6l7 4 1 6-11-1-5-3-1-3z" fill="#FBDEAA"/>
<path transform="translate(434,85)" d="m0 0 4 5 2 4 7 1h3v2h-3v2l-8 6-4-8-1-4z" fill="#9E7644"/>
<path transform="translate(523,743)" d="m0 0h6v1h-5v6h10v27h-2l-2-12-1-14h-6z" fill="#D4C2A4"/>
<path transform="translate(611,817)" d="m0 0h1v12l-1 13-2 5-3 15-3 6-2 1 4-17 3-15 1-12z" fill="#43321C"/>
<path transform="translate(525,683)" d="m0 0 4 2-3 15-2 3h-4v-9l2-8z" fill="#8B847B"/>
<path transform="translate(42,2)" d="m0 0 3 1 5 5v8l-5 1-1-3-6-1 1-4z" fill="#5A4122"/>
<path transform="translate(986,149)" d="m0 0h3l1 3-2 4 9-1 7 5v5l4 1 2 4-1 2h3v2l-6 1v-6l-6 1 2-5v-3l-3-3-15-2z" fill="#8A683C"/>
<path transform="translate(505,13)" d="m0 0 2 2v3l3-1 1 1v5h-2v12l3 1v4l-4 1v7h-1l-1-18-4 1-1-2 4-7h2l-2-5z" fill="#795B34"/>
<path transform="translate(583,793)" d="m0 0h1v10h-45l-2-3h45z" fill="#B4A691"/>
<path transform="translate(415,673)" d="m0 0h1l1 97 1 2v6l-2-3-1-2z" fill="#7E6038"/>
<path transform="translate(26,61)" d="m0 0 5 1v9l-4 6h-4l-1-4 1-4-2-3z" fill="#7E6038"/>
<path transform="translate(345,719)" d="m0 0 8 1 1 5-3 9-2 3h-2v-6l-2-2v-3h-2l1-5z" fill="#9F7643"/>
<path transform="translate(519,20)" d="m0 0 1 4-1 7v14l-1 7-6 2 1 3-4 3 2-8 4-7v-15z" fill="#836238"/>
<path transform="translate(49,24)" d="m0 0 1 2 5 2 2 10 2 2-5 3-4 1z" fill="#1B1108"/>
<path transform="translate(606,803)" d="m0 0h6l-2 5-14 1-9-1-1-4z" fill="#C5B7A2"/>
<path transform="translate(128,14)" d="m0 0 4 4v9l-2 4 4 9 2 1v8l-2 1v-8h-2l-3-5h-3l-4 7-1-3 5-7v-4l-3-1 7-3v-7l-3-1z" fill="#1B1108"/>
<path transform="translate(997,871)" d="m0 0 2 1 1 9-1 8 2 11h-5l-2-7v-7l3-10z" fill="#8A683C"/>
<path transform="translate(1058,750)" d="m0 0h7l9 2 1 5-3 3-13-5-2-4z" fill="#928A7F"/>
<path transform="translate(648,102)" d="m0 0v3l-2 4h2l2 7-4 9h-5l1-4v-12l2-3h2z" fill="#7E6037"/>
<path transform="translate(1181,590)" d="m0 0h4l1 2v16l-3 6-2-3z" fill="#21160B"/>
<path transform="translate(155,102)" d="m0 0 4 1 1 45 2 1-2 3h-2l-1-9v-39l-3 1z" fill="#4C361B"/>
<path transform="translate(481,388)" d="m0 0 5 5 16 22 1 6h-2l-4-5-5-9-8-11-3-5z" fill="#B68C56"/>
<path transform="translate(371,91)" d="m0 0 2 3 3 8v3h-2l-1-2-2 10h-5l2-7v-9l-1-4z" fill="#392915"/>
<path transform="translate(699,43)" d="m0 0 6 1-5 9-8 11h-1v-8l1-3 5-1-1-6z" fill="#AE8550"/>
<path transform="translate(173,21)" d="m0 0h3v8l-5 9h-3l-1-1 1-10z" fill="#5B4122"/>
<path transform="translate(577,843)" d="m0 0 1 3-8 16-8 11-3 3h-2l2-5 8-11 7-13h2z" fill="#3B2A13"/>
<path transform="translate(210,795)" d="m0 0h7l4 4-1 2h-6l-3 4-5-1-2-4z" fill="#AF8752"/>
<path transform="translate(767,750)" d="m0 0h17l-2 4h-5v2h5v1h-15z" fill="#C5B7A2"/>
<path transform="translate(356,60)" d="m0 0 4 2 5 3 3 4v2h-13l-1-4z" fill="#C1955C"/>
<path transform="translate(748,49)" d="m0 0h1l1 5 2-1h7l3 1-1 2h-3l-1 3-5 1v3h-6l1-8z" fill="#9C7442"/>
<path transform="translate(339,512)" d="m0 0h5l-1 2-7 1-1 5-4 4h-2l-1 4v10l-2 2-1-13 1-4 3-6z" fill="#A17D4D"/>
<path transform="translate(1146,644)" d="m0 0 9 2 9 6 7 8-2 5-4-5-4-6-7-5-8-3z" fill="#6C512E"/>
<path transform="translate(223,152)" d="m0 0 7 1 3 1-1 6-5 8-2-3-2-7z" fill="#281B0D"/>
<path transform="translate(514,811)" d="m0 0h15v1l-7 1 1 2v7l-4 2-5-5 2-6-3 3z" fill="#CC9E62"/>
<path transform="translate(316,85)" d="m0 0h6v2h2v5l-5 8-3 3z" fill="#191006"/>
<path transform="translate(1514,384)" d="m0 0 2 2-2 6-7 8-8 4-3 1h-10l-1-2 2-1 14-2 6-4 5-7z" fill="#342410"/>
<path transform="translate(320,199)" d="m0 0 4 1-1 9-4 12h-2l-1-5v-8h3z" fill="#2C1E0F"/>
<path transform="translate(529,810)" d="m0 0h3l3 23v14l-2-3-3-19z" fill="#584023"/>
<path transform="translate(373,35)" d="m0 0 5 3 2 9-1 2h-2l-1 4-3-1-1-10z" fill="#1A1006"/>
<path transform="translate(134,104)" d="m0 0h5l2 7v8l3 1-6 2 1-10h-2l-2 4-2 1 1-9-4 1 1-3z" fill="#422E16"/>
<path transform="translate(129,62)" d="m0 0 2 1v11h-2l-2 5-4-1v-11l5-1z" fill="#916D3F"/>
<path transform="translate(185,47)" d="m0 0h2l2 6-1 7-2 2h-5v-9z" fill="#5A4122"/>
<path transform="translate(674,10)" d="m0 0 4 1 3 5v4l-10 2-2-4 1-3h2z" fill="#806036"/>
<path transform="translate(611,805)" d="m0 0 1 4-2 2-4 1h-11l-8-1-1-4 11 1 13-1z" fill="#AC9C86"/>
<path transform="translate(1597,749)" d="m0 0h3v19h-3l-2-3v-13z" fill="#3F301B"/>
<path transform="translate(194,80)" d="m0 0h1l1 8v9l-2 5-1 4-3-1v-6l1-2 1-15z" fill="#A47D4B"/>
<path transform="translate(602,663)" d="m0 0 2 3 6 25v5h-3l-5-23z" fill="#817A72"/>
<path transform="translate(144,105)" d="m0 0h3v2l3 1-1 5-5 6h-3v-10z" fill="#120A04"/>
<path transform="translate(335,665)" d="m0 0h2l2 8-1 2h-2l-2 6-10 8-3-1 3-2 1-3 5-4 4-9z" fill="#9D7A4C"/>
<path transform="translate(276,191)" d="m0 0h5l-1 4-5 8-2 5h-2v-12l1-2h3z" fill="#3B2915"/>
<path transform="translate(345,752)" d="m0 0 2 1-2 6-1 5h-2v4h-2l-1 2-1-3v-10l5-4z" fill="#9F7744"/>
<path transform="translate(234,135)" d="m0 0h2l1 7h-1l-2 7h-5l-1-5 2-6z" fill="#33230F"/>
<path transform="translate(493,17)" d="m0 0 6 1v5l-7 3-5-1-1-7z" fill="#987140"/>
<path transform="translate(421)" d="m0 0h6v19l8-7 2 1-10 10-2-1v-20l-7 1z" fill="#72552F"/>
<path transform="translate(340,772)" d="m0 0h2v2l3 1-1 9-2 6h-2l-1 2-1-9 2-6z" fill="#9E7643"/>
<path transform="translate(637,121)" d="m0 0h2l-1 9-1 2 5-1-1 7-3 6-3-1v-11z" fill="#9E7745"/>
<path transform="translate(655)" d="m0 0h10l1 7-4 2-2 2-5-7z" fill="#AB844F"/>
<path transform="translate(641,25)" d="m0 0h1l3 11v10l-2 2v-11h-7l-1-4 4-4 1 1z" fill="#906F43"/>
<path transform="translate(367,18)" d="m0 0h5l4 11-4 6h-4l2-6-1-3z" fill="#A27B49"/>
<path transform="translate(536,17)" d="m0 0 4 2v13l-2-1-1-4-5 1v-2l-5 1 2-3 3-1z" fill="#7A5B33"/>
<path transform="translate(1080,743)" d="m0 0h6v13h-5l-1-1z" fill="#FAF9F6"/>
<path transform="translate(666,3)" d="m0 0 3 1 3 3-2 5h-3l-1 5-1-3-4-1 1-5 3-3z" fill="#906B3D"/>
<path transform="translate(925,750)" d="m0 0h10l1 6 2 1h-12l-1-1z" fill="#C6B69F"/>
<path transform="translate(810,702)" d="m0 0h8l3 7-1 1h-10z" fill="#C9BAA3"/>
<path transform="translate(1507,253)" d="m0 0h6l-1 5-7 4-4-3h-3l2-4z" fill="#342410"/>
<path transform="translate(522,802)" d="m0 0h7l1 7-11 1-1-2 1-5z" fill="#B7A995"/>
<path transform="translate(525,499)" d="m0 0 3 4 6 23-1 5-2-1-6-28z" fill="#634827"/>
<path transform="translate(402,343)" d="m0 0 1 3-2 11 1 10-3 7-1 4-2 3-2-1 3-11 3-5-2-5 2-11z" fill="#8A683C"/>
<path transform="translate(1509,263)" d="m0 0h2l1 4h-2v2h-2v2l-5 4h-3v2l-5 1 5-7 5-5z" fill="#594021"/>
<path transform="translate(430,4)" d="m0 0 1 2h2v2l5 1-6 7-4 2v-12h2z" fill="#A37E4D"/>
<path transform="translate(1089,744)" d="m0 0h6v12h-6z" fill="#FEFEFE"/>
<path transform="translate(505,744)" d="m0 0h6v12h-6z" fill="#FDFDFB"/>
<path transform="translate(518,465)" d="m0 0h1l1 11 1 2v6l-4-2-3-9 1-5h2z" fill="#AC834E"/>
<path transform="translate(132,108)" d="m0 0h2v8l3-2-2 5-5 3h-2l1-4-2-1 1-5z" fill="#85653A"/>
<path transform="translate(712)" d="m0 0 5 1v2l5 2 4 3 1 6-3 4-2-1v-8l-8-4z" fill="#91754E"/>
<path transform="translate(581,763)" d="m0 0h9v7l-1 1h-8z" fill="#BDAE98"/>
<path transform="translate(596,251)" d="m0 0 3 1v8l-3 2-5-1-2-4 4-4z" fill="#88663B"/>
<path transform="translate(249,21)" d="m0 0 4 6v4l3 1-5 2h-6l2-11h2z" fill="#1F140A"/>
<path transform="translate(514,744)" d="m0 0h6v10l-1 2h-5z" fill="#FEFEFE"/>
<path transform="translate(398,432)" d="m0 0 2 4-1 5-2 3-1 8 1 2-2 3-2-1-1-14 5-4v-5z" fill="#8A683C"/>
<path transform="translate(180,126)" d="m0 0h2l-3 9-3 11-2 1v-12l-2-1h2l2-4z" fill="#483319"/>
<path transform="translate(484)" d="m0 0h1v17l2 1v7l-4 2v-17l-2-4z" fill="#3D2B15"/>
<path transform="translate(852,753)" d="m0 0 3 3 2 5v4h-9l1-5z" fill="#C8B9A2"/>
<path transform="translate(999,169)" d="m0 0h7v6l9-2 5 1v3l2 1-7 2-1-4h-10l-1-4-6 1z" fill="#83633A"/>
<path transform="translate(1044,741)" d="m0 0h5v2h2v5h-5l-3-2v-2h-26v-1h27z" fill="#9C9284"/>
<path transform="translate(129,146)" d="m0 0 5 2 1 4v7l-4 1-2-4z" fill="#926E40"/>
<path transform="translate(851,688)" d="m0 0 3 1 3 10h-9l-1-2z" fill="#CBBBA3"/>
<path transform="translate(531,676)" d="m0 0 1 3-1 5v7l-3 8h-2l1-10 1-4-2-4z" fill="#847C72"/>
<path transform="translate(549)" d="m0 0h5v16l-2 4-2-4 1-8-2-4z" fill="#9D7847"/>
<path transform="translate(687,754)" d="m0 0 3 1 3 10h-9l2-9z" fill="#CFBEA3"/>
<path transform="translate(1077,746)" d="m0 0h3v9l-4 6h-4v-2h2v-12l2 2z" fill="#877F74"/>
<path transform="translate(709,688)" d="m0 0 3 1 3 10h-10z" fill="#C5B7A0"/>
<path transform="translate(921,688)" d="m0 0h2l3 7v4h-9l3-10z" fill="#C5B6A0"/>
<path transform="translate(409,53)" d="m0 0 2 1 3 17-1 4-4-2 2-1-3-11v-3l-2-1h2z" fill="#412E16"/>
<path transform="translate(491,887)" d="m0 0 4 1 2 5-1 4-6 1-2-3 1-5z" fill="#5A4122"/>
<path transform="translate(687,63)" d="m0 0 2 4-1 5-9 6-2-1 1-4h2v-3h3l1-3 3 1z" fill="#937143"/>
<path transform="translate(413,32)" d="m0 0 2 1 1-1h2l-2 5-2 7-4 5-1 6-2 1 1-7-2-1 4-2 1-8z" fill="#9D7543"/>
<path transform="translate(534,548)" d="m0 0 2 1 2 14-2 1-5-5-1-5h4l-1-5z" fill="#DFB073"/>
<path transform="translate(641,111)" d="m0 0 2 4v8l-3 2v4l2 2-5 1 1-16z" fill="#8D6A3D"/>
<path transform="translate(529,786)" d="m0 0h1l2 13 3 1 1-2v5h-5l-1 4-2-5v-13z" fill="#827C74"/>
<path transform="translate(96,750)" d="m0 0 6 1 1 1v5l-4 1-6-2 2-5z" fill="#AF8752"/>
<path transform="translate(68,83)" d="m0 0h1l1 11 5 11 4 3-1 2-4-1h-3l-3-13z" fill="#5A4122"/>
<path transform="translate(393,380)" d="m0 0 7 6 1 6-1 8h-1l-2-7-2-5v-3l-3-1z" fill="#8F6C3E"/>
<path transform="translate(424,22)" d="m0 0 4 1 1 3-2 12h-2v-11h-3l-3 3h-2l2-4z" fill="#84643A"/>
<path transform="translate(1019,778)" d="m0 0h12l1 2 1 19-4-1h2l-1-3-1-13-3-2-7-1z" fill="#8A837A"/>
<path transform="translate(572,548)" d="m0 0 2 1-1 10 3 2 1 14-2 2-1-5v-7l-4-5 1-9-2-1z" fill="#8A683C"/>
<path transform="translate(263,146)" d="m0 0h7l-1 2h-4l3 12 1 16-3-3-1-15-2-8z" fill="#755731"/>
<path transform="translate(748)" d="m0 0h5l2 8-1 5v5l-3-4z" fill="#AA8450"/>
<path transform="translate(129,109)" d="m0 0v3l-1 5 1 3-2 3-4 2-2 7-1-2 2-9 5-10z" fill="#5A4122"/>
<path transform="translate(518,45)" d="m0 0 2 1-2 9h-2l-2 5-8 5-2-1 8-7v-3l5-2z" fill="#956F3F"/>
<path transform="translate(149,121)" d="m0 0h2v4l2 1-1 5h-2l-1 2-2-1-1-9z" fill="#AF8752"/>
<path transform="translate(155,104)" d="m0 0h2l1 10-1 24h-1l-1-27h-3l1-6z" fill="#86653A"/>
<path transform="translate(348,98)" d="m0 0 3 1v9l-1 2-3-1-3-4 2-5z" fill="#C5985E"/>
<path transform="translate(801,686)" d="m0 0h1l1 22h-3l-2-4 1-9z" fill="#CCBCA3"/>
<path transform="translate(502,415)" d="m0 0 3 3 2 11-6 1v-2l-2-1 1-4h2z" fill="#8F6B3E"/>
<path transform="translate(1e3 165)" d="m0 0 6 1 2 4-1 2h3v2l-6 1v-6l-6 1z" fill="#946F40"/>
<path transform="translate(73,136)" d="m0 0h5l-1 4-6 5-4 4-2-1 3-5h2l1-6z" fill="#281B0C"/>
<path transform="translate(119,53)" d="m0 0h2l2 7-3 2-5-3-4-2v-3h7z" fill="#412E16"/>
<path transform="translate(519,20)" d="m0 0 1 4-2 18-2 3-1-15z" fill="#684D2A"/>
<path transform="translate(672,643)" d="m0 0h27v1l-14 2-15-1z" fill="#ACA08E"/>
<path transform="translate(1182,167)" d="m0 0 3 1v2l4 1-1 5-2 2-5-5-1-4z" fill="#8A683C"/>
<path transform="translate(171,135)" d="m0 0h3l1 11 1-5h1v8l-4 1-1-2v-10l-6 6-2-1z" fill="#846338"/>
<path transform="translate(0,56)" d="m0 0h3l-1 23-2 2z" fill="#7E6038"/>
<path transform="translate(451,13)" d="m0 0 2 4 2 2-1 6-1 1h-5z" fill="#654A29"/>
<path transform="translate(679,47)" d="m0 0 3 4 3 6-1 2-4-1-3-3-1-5 3-1z" fill="#916C3E"/>
<path transform="translate(502,881)" d="m0 0 4 1 10 7-4 1-10-5z" fill="#C2965D"/>
<path transform="translate(1058,750)" d="m0 0h7l3 3-1 3h-6l-4-3z" fill="#8C857B"/>
<path transform="translate(329,573)" d="m0 0h2l1 4-1 3 1 14-2-2-3-9 1-7z" fill="#A17845"/>
<path transform="translate(303,187)" d="m0 0 1 4-6 9-1-1v-9l2-2z" fill="#2F2010"/>
<path transform="translate(542,615)" d="m0 0h2l5 20-1 3h-2l-2-9z" fill="#7F6038"/>
<path transform="translate(361,50)" d="m0 0 3 2-1 9h-5l1-10z" fill="#1C1208"/>
<path transform="translate(545,22)" d="m0 0h1l1 6 1 2-1 3h-2l1 7-4-2v-3z" fill="#6C512D"/>
<path transform="translate(480,8)" d="m0 0 4 2v16l2 1-3 3-1-1-1-16-5 2z" fill="#735630"/>
<path transform="translate(160)" d="m0 0h10l-2 4-6 5-2-6z" fill="#110903"/>
<path transform="translate(606,847)" d="m0 0h2v7l-4 13-3 2 4-17z" fill="#46321A"/>
<path transform="translate(1026,765)" d="m0 0h6l2 4 9 1v1h-17z" fill="#B1A594"/>
<path transform="translate(1530,265)" d="m0 0h8l2 1-1 3-9 1-2-1z" fill="#3F301B"/>
<path transform="translate(16)" d="m0 0h8l-2 8h-5l-1-7z" fill="#1E1309"/>
<path transform="translate(340,731)" d="m0 0 3 2-1 9-7-1z" fill="#AE8651"/>
<path transform="translate(519,469)" d="m0 0h2l3 15-1 4-3-1-1-4h1z" fill="#8A673B"/>
<path transform="translate(157)" d="m0 0h3v10l-7-2v-3l2-1z" fill="#71542F"/>
<path transform="translate(583,810)" d="m0 0h3v7l-3 7-4 4 3-11z" fill="#433119"/>
<path transform="translate(486,394)" d="m0 0 4 1 12 18-1 2-12-16z" fill="#644928"/>
<path transform="translate(321,135)" d="m0 0 1 2 2 1-2 3 4 1-5 5-1 4h-2l1-8z" fill="#46321A"/>
<path transform="translate(672,24)" d="m0 0h7l1 6-1 1h-5z" fill="#8A663A"/>
<path transform="translate(688,23)" d="m0 0 6 3 1 7h-4l-3-5z" fill="#836237"/>
<path transform="translate(715,24)" d="m0 0h3l-1 6-3 4h-3l1-7z" fill="#9C7442"/>
<path transform="translate(1190,822)" d="m0 0h1l1 10v10l-3 2v-7l-1-7 1-1z" fill="#7D5D35"/>
<path transform="translate(1514,384)" d="m0 0 2 2-2 6-7 8-4 1v-2l6-5z" fill="#372813"/>
<path transform="translate(475,15)" d="m0 0v3l-1 11-2 1-2-6-1-4z" fill="#5B4122"/>
<path transform="translate(119,10)" d="m0 0h5l4 3-2 6-1-4-2 2h-3l1-5h-5z" fill="#342410"/>
<path transform="translate(612,768)" d="m0 0 1 3h2l1 2 2-1-1 5-1-2h-2l-1 17h-1z" fill="#ACA08F"/>
<path transform="translate(1179,742)" d="m0 0h1l1 6 1 18-3-1-1-7z" fill="#766959"/>
<path transform="translate(357,691)" d="m0 0h1v10l-6 4 1-7 1-6 3 1z" fill="#936F40"/>
<path transform="translate(1170,661)" d="m0 0 3 1 6 9 1 4h-3l-2-4-5-7z" fill="#736553"/>
<path transform="translate(530,557)" d="m0 0 4 5 4 1v6l-5-1v-3h-2z" fill="#8C6A3D"/>
<path transform="translate(270,133)" d="m0 0 3 1h-2l-1 4-4 1h-3l-8 8-1-2 10-10 6 1z" fill="#A8814E"/>
<path transform="translate(369,86)" d="m0 0h3v5l-2 2-5-1-3-2v-3l4 1 3 1z" fill="#261A0C"/>
<path transform="translate(758,59)" d="m0 0 2 1-1 4-4-1 1 7-3 2v-2l-2-1 2-8z" fill="#836339"/>
<path transform="translate(680,771)" d="m0 0h16l-1 4-8-1h-7z" fill="#BCAD98"/>
<path transform="translate(357,93)" d="m0 0 1 4-1 7h-4l-1-6 2-4z" fill="#1F1409"/>
<path transform="translate(235,866)" d="m0 0h2l2 2 4 2v2l2 1 3 5-1 2-6-4-6-9z" fill="#92764F"/>
<path transform="translate(576,577)" d="m0 0 2 3 3 10 1 11-2-1-2-8-2-11z" fill="#8A683C"/>
<path transform="translate(109,92)" d="m0 0h2l-1 14v4h-2l-1-2v-11z" fill="#9F7947"/>
<path transform="translate(100,98)" d="m0 0h5l-1 13-2 1-1-6-1-2z" fill="#1B1108"/>
<path transform="translate(645,38)" d="m0 0h1l2 11-5 5h-2l2-6z" fill="#342512"/>
<path transform="translate(529,26)" d="m0 0 7 1 2-1-1 5h-9l-1-4z" fill="#9A7342"/>
<path transform="translate(636,9)" d="m0 0h1l3 9-7 2-1-8 3-1z" fill="#CB9D62"/>
<path transform="translate(374)" d="m0 0h8l-2 8h-3l-1-6-3 1z" fill="#322210"/>
<path transform="translate(639,396)" d="m0 0h1l1 7v10l-3 6-1-3 1-1v-12l-1-3z" fill="#967243"/>
<path transform="translate(328,133)" d="m0 0h2v5l-3 3h-5l2-5z" fill="#2A1D0E"/>
<path transform="translate(128,51)" d="m0 0h2l-2 6-3 2-4-1v-5l2 1 1-2z" fill="#23180B"/>
<path transform="translate(699,43)" d="m0 0 6 1-3 6-5 2-1-6z" fill="#9C7442"/>
<path transform="translate(440,9)" d="m0 0 4 1h6v2l2 1-1 2h-4v-2h-10l-1-2z" fill="#906C3F"/>
<path transform="translate(946,623)" d="m0 0 2 3 3 6v8l-1 3h-2l-1-13z" fill="#88673B"/>
<path transform="translate(789,56)" d="m0 0 9 3 7 3 1 3-3 1-1-4-6 1-7-6z" fill="#7E6038"/>
<path transform="translate(128,14)" d="m0 0 4 4v9l-4 5h-2v-2l-3-1 7-3v-7l-3-1z" fill="#1A1007"/>
<path transform="translate(618,797)" d="m0 0 2 4 2 2-10 1v-5z" fill="#7A6E5F"/>
<path transform="translate(424,128)" d="m0 0 5 1 5 5v7h-1l-1-5-4-3v-2h-4l-1 2z" fill="#AF8752"/>
<path transform="translate(652,110)" d="m0 0h2l-1 7-1 3h-2v2h-2l1-6 2-5z" fill="#8E6C3F"/>
<path transform="translate(238,55)" d="m0 0h4l-2 12-2 4z" fill="#BB9058"/>
<path transform="translate(206,53)" d="m0 0h3l1 3-2 4-5-1-1-3 1-2z" fill="#110A03"/>
<path transform="translate(494,13)" d="m0 0 4 1 2 3 1 7 1 2-3-1v-7h-3l-1 2-2-2-1-2z" fill="#87663B"/>
<path transform="translate(625)" d="m0 0h6l-3 6h-2l-1 5-2-1z" fill="#332412"/>
<path transform="translate(587)" d="m0 0h8l1 8-6-4z" fill="#7E5F37"/>
<path transform="translate(538,561)" d="m0 0h2l2 9 1 12-2-4-3-13z" fill="#5C4223"/>
<path transform="translate(273,195)" d="m0 0h4l-1 7-2 4h-2v-8z" fill="#191006"/>
<path transform="translate(935,117)" d="m0 0 7 1v3h2l-1 3h-4l-1-4h-3z" fill="#8A683C"/>
<path transform="translate(399,68)" d="m0 0 2 1-1 7-2 3h-2v-9h3z" fill="#44311A"/>
<path transform="translate(344,869)" d="m0 0 1 4h2l-1 9v2h-2l-1 3v-14z" fill="#977242"/>
<path transform="translate(227)" d="m0 0h2l-2 8-6 5-4 4 2-5 5-6z" fill="#1B1108"/>
<path transform="translate(74,67)" d="m0 0h1v22 3l-2-1v-21z" fill="#2A1C0D"/>
<path transform="translate(503,876)" d="m0 0 10 5-2 1v3l-5-2-3-3z" fill="#1F1409"/>
<path transform="translate(910,858)" d="m0 0 5 5-2 3-4-1-1-5z" fill="#CD9F63"/>
<path transform="translate(378,114)" d="m0 0 5 5-1 4-4 2z" fill="#45321A"/>
<path transform="translate(190,109)" d="m0 0h5l1 1 1 18h-2l-1-16h-3z" fill="#916D3F"/>
<path transform="translate(129,74)" d="m0 0 1 3-1 9h-3l-2-7 3-1z" fill="#745731"/>
<path transform="translate(444,3)" d="m0 0 6 1-1 4-7 2-1-4h2z" fill="#9A7241"/>
<path transform="translate(345,752)" d="m0 0 2 1-2 6-1 4-2-1-1-8z" fill="#95764D"/>
<path transform="translate(106,157)" d="m0 0h3l-1 7-4 2v-8z" fill="#AF8752"/>
<path transform="translate(68,67)" d="m0 0 2 4 1 1v8l-3 1v-5l-2-5z" fill="#775832"/>
<path transform="translate(531,893)" d="m0 0h4v4l5 2v1h-8l-3-3h3v-2l-2-1z" fill="#3A2915"/>
<path transform="translate(540,583)" d="m0 0 3 3 1 7-4 2-1-9z" fill="#8A683C"/>
<path transform="translate(187,103)" d="m0 0 2 1-2 7-2 11h-1l1-7h-2v-4h2z" fill="#674C29"/>
<path transform="translate(845,76)" d="m0 0 1 2 6-1 8 2v2h-3l-1 4v-4l-7-2-5 1z" fill="#86653B"/>
<path transform="translate(529,810)" d="m0 0h3l1 11-3 4z" fill="#6A4F2C"/>
<path transform="translate(731,751)" d="m0 0h10l1 3-11 1z" fill="#B7A893"/>
<path transform="translate(383,324)" d="m0 0 5 5 5 3-2-4 3 1 2 5-7-1-6-7z" fill="#A8804C"/>
<path transform="translate(642,130)" d="m0 0h1v7l-3 7-5 6-1-2 4-5 3-7z" fill="#89673C"/>
<path transform="translate(351,99)" d="m0 0h2l1 5 2 2-4 5-2-1z" fill="#432F17"/>
<path transform="translate(507,34)" d="m0 0 5 2v4l-4 1v7h-1z" fill="#4E381D"/>
<path transform="translate(335,741)" d="m0 0h8l-1 4-3 1-5-1z" fill="#9A7647"/>
<path transform="translate(337,650)" d="m0 0h2v3l3-1 1 2-9 3v-5z" fill="#A17845"/>
<path transform="translate(472,543)" d="m0 0h3l-1 6-4 1-1-4z" fill="#342410"/>
<path transform="translate(374,30)" d="m0 0h2v6l-3 1v5l-3-3 2-6z" fill="#3C2A15"/>
<path transform="translate(553,30)" d="m0 0 3 4-1 3v-2l-8 4v-3h2l1-3h2z" fill="#A17D4D"/>
<path transform="translate(611,817)" d="m0 0h1v12l-2 4h-1v-8z" fill="#47361E"/>
<path transform="translate(1174,770)" d="m0 0 1 3-4 10-2-3 2-8z" fill="#78736E"/>
<path transform="translate(246,137)" d="m0 0h3v13h2l-1 3-2-1-1-5v-8z" fill="#433018"/>
<path transform="translate(138,110)" d="m0 0 3 1v8l3 1-6 2z" fill="#584022"/>
<path transform="translate(110,91)" d="m0 0h2v16l-2 1-1-2z" fill="#473219"/>
<path transform="translate(230,69)" d="m0 0 4 1v5l-4 1-1-5z" fill="#6C502C"/>
<path transform="translate(285,59)" d="m0 0 4 1-1 6h-4z" fill="#21160B"/>
<path transform="translate(523,19)" d="m0 0 2 3v5h2l-1 5-3 1z" fill="#49341A"/>
<path transform="translate(347,884)" d="m0 0 1 4v3l1 5h-4l-1-3z" fill="#916D3F"/>
<path transform="translate(615,834)" d="m0 0h1v11l-2 6-2-1z" fill="#362611"/>
<path transform="translate(37,624)" d="m0 0 3 1v8l-3 3-1-3z" fill="#AF8752"/>
<path transform="translate(614,443)" d="m0 0h1v15l1 2-4 4z" fill="#926E40"/>
<path transform="translate(324,130)" d="m0 0h3l-1 5-4 2h-2v-3h2z" fill="#B68C56"/>
<path transform="translate(151,111)" d="m0 0 3 1-1 4-5 4-1-4z" fill="#AD8651"/>
<path transform="translate(121,63)" d="m0 0 8 2-1 2-4 2-1 5h-1z" fill="#755832"/>
<path transform="translate(694,28)" d="m0 0 3 3v2l2 1-4 4-1-2-4-2 1-2h3z" fill="#533C1E"/>
<path transform="translate(572,548)" d="m0 0 2 1-1 10-3 1 1-9-2-1z" fill="#8D6A3D"/>
<path transform="translate(109,139)" d="m0 0 2 3 3-1v2h-2l-2 5-3 3 1-7z" fill="#513A1E"/>
<path transform="translate(132,108)" d="m0 0h2l-1 7-2 2-2-6z" fill="#906C3F"/>
<path transform="translate(220,100)" d="m0 0h2v14h-1l-1-5-2 1z" fill="#A47D4A"/>
<path transform="translate(424,22)" d="m0 0 3 1-1 3-4 1-3 3h-2l2-4z" fill="#8C6A3D"/>
<path transform="translate(394,2)" d="m0 0h7v6l-1 2h-2l-1-7z" fill="#A17D4D"/>
<path transform="translate(266)" d="m0 0h10l-3 4-5-1z" fill="#5A4122"/>
<path transform="translate(331,680)" d="m0 0 3 1-10 8-3-1 3-2 1-3 5-2z" fill="#997546"/>
<path transform="translate(589,430)" d="m0 0 12 1-3 2h-9l-5-1v-1z" fill="#A27B49"/>
<path transform="translate(989,150)" d="m0 0 4 2 2 4h-7z" fill="#9F7643"/>
<path transform="translate(245,141)" d="m0 0h1v7l-3 1-2-1 1-5z" fill="#C89B60"/>
<path transform="translate(640,112)" d="m0 0h1l1 8-3 4-1-8z" fill="#957041"/>
<path transform="translate(373,96)" d="m0 0 2 4 1 5h-2l-1-2-1 7h-1v-9z" fill="#5C4323"/>
<path transform="translate(771,52)" d="m0 0 7 1-4 3-6-1-2-2z" fill="#8A6B41"/>
<path transform="translate(423,2)" d="m0 0h2v7l-2-1v-2l-8-1 4-2z" fill="#A07948"/>
<path transform="translate(581,751)" d="m0 0 3 1v2h2v-2h2v4h-7z" fill="#9E9487"/>
<path transform="translate(1326,428)" d="m0 0h2l1 6v7h-2z" fill="#382713"/>
<path transform="translate(1206,203)" d="m0 0h1l2 6 2 2-6-1-2-4z" fill="#3E2C15"/>
<path transform="translate(266,150)" d="m0 0 4 1 1 3-2 3h-3z" fill="#1C1108"/>
<path transform="translate(157,141)" d="m0 0h2l1 7 2 1-2 3h-2z" fill="#4F391D"/>
<path transform="translate(247,24)" d="m0 0h2v9h-4z" fill="#342410"/>
</svg>
